NotoSansDisplay-Light.ufo
<glyph name="tbar" format="2">
  <advance width="319"/>
  <unicode hex="0167"/>
  <anchor x="181" y="0" name="bottom"/>
  <anchor x="105" y="659" name="top"/>
  <anchor x="152" y="264" name="center"/>
  <anchor x="283" y="659" name="topright"/>
  <outline>
    <contour>
      <point x="18" y="285" type="line"/>
      <point x="270" y="285" type="line"/>
      <point x="270" y="310" type="line"/>
      <point x="18" y="310" type="line"/>
    </contour>
    <component base="t"/>
  </outline>
</glyph>
<glyph name="uni0191" format="2">
  <advance width="514"/>
  <unicode hex="0191"/>
  <anchor x="106" y="0" name="bottom"/>
  <anchor x="348" y="714" name="top"/>
  <anchor x="514" y="714" name="topright"/>
  <outline>
    <contour>
      <point x="102" y="-15" type="curve" smooth="yes"/>
      <point x="179" y="-15"/>
      <point x="214" y="39"/>
      <point x="214" y="134" type="curve" smooth="yes"/>
      <point x="214" y="363" type="line"/>
      <point x="492" y="363" type="line"/>
      <point x="492" y="388" type="line"/>
      <point x="214" y="388" type="line"/>
      <point x="214" y="689" type="line"/>
      <point x="510" y="689" type="line"/>
      <point x="510" y="714" type="line"/>
      <point x="186" y="714" type="line"/>
      <point x="186" y="135" type="line" smooth="yes"/>
      <point x="186" y="55"/>
      <point x="160" y="9"/>
      <point x="100" y="9" type="curve" smooth="yes"/>
      <point x="46" y="9"/>
      <point x="18" y="52"/>
      <point x="18" y="106" type="curve" smooth="yes"/>
      <point x="18" y="125"/>
      <point x="20" y="143"/>
      <point x="27" y="161" type="curve"/>
      <point x="1" y="170" type="line"/>
      <point x="-7" y="148"/>
      <point x="-10" y="129"/>
      <point x="-10" y="107" type="curve" smooth="yes"/>
      <point x="-10" y="38"/>
      <point x="28" y="-15"/>
    </contour>
  </outline>
</glyph>
<glyph name="florin" format="2">
  <advance width="331"/>
  <unicode hex="0192"/>
  <anchor x="98" y="0" name="bottom"/>
  <anchor x="276" y="765" name="top"/>
  <anchor x="377" y="765" name="topright"/>
  <outline>
    <contour>
      <point x="92" y="-15" type="curve" smooth="yes"/>
      <point x="177" y="-15"/>
      <point x="204" y="48"/>
      <point x="204" y="135" type="curve" smooth="yes"/>
      <point x="204" y="503" type="line"/>
      <point x="316" y="503" type="line"/>
      <point x="316" y="528" type="line"/>
      <point x="204" y="528" type="line"/>
      <point x="204" y="603" type="line" smooth="yes"/>
      <point x="204" y="701"/>
      <point x="234" y="740"/>
      <point x="313" y="740" type="curve" smooth="yes"/>
      <point x="337" y="740"/>
      <point x="364" y="736"/>
      <point x="387" y="727" type="curve"/>
      <point x="391" y="753" type="line"/>
      <point x="368" y="760"/>
      <point x="345" y="765"/>
      <point x="313" y="765" type="curve" smooth="yes"/>
      <point x="216" y="765"/>
      <point x="177" y="707"/>
      <point x="177" y="603" type="curve" smooth="yes"/>
      <point x="177" y="528" type="line"/>
      <point x="81" y="525" type="line"/>
      <point x="81" y="503" type="line"/>
      <point x="177" y="503" type="line"/>
      <point x="177" y="136" type="line" smooth="yes"/>
      <point x="177" y="59"/>
      <point x="155" y="9"/>
      <point x="92" y="9" type="curve" smooth="yes"/>
      <point x="49" y="9"/>
      <point x="15" y="43"/>
      <point x="15" y="97" type="curve" smooth="yes"/>
      <point x="15" y="121"/>
      <point x="19" y="138"/>
      <point x="24" y="151" type="curve"/>
      <point x="-3" y="158" type="line"/>
      <point x="-8" y="142"/>
      <point x="-13" y="123"/>
      <point x="-13" y="98" type="curve" smooth="yes"/>
      <point x="-13" y="29"/>
      <point x="33" y="-15"/>
    </contour>
  </outline>
</glyph>
<glyph name="uni023C" format="2">
  <advance width="472"/>
  <unicode hex="023C"/>
  <anchor x="277" y="-148" name="bottom"/>
  <anchor x="286" y="687" name="top"/>
  <anchor x="425" y="528" name="topright"/>
  <outline>
    <contour>
      <point x="451" y="687" type="line"/>
      <point x="425" y="687" type="line"/>
      <point x="135" y="-148" type="line"/>
      <point x="161" y="-148" type="line"/>
    </contour>
    <component base="c"/>
  </outline>
</glyph>
<glyph name="uni023D" format="2">
  <advance width="477"/>
  <unicode hex="023D"/>
  <anchor x="267" y="0" name="bottom"/>
  <anchor x="111" y="714" name="top"/>
  <anchor x="239" y="357" name="center"/>
  <anchor x="416" y="714" name="topright"/>
  <outline>
    <contour>
      <point x="7" y="330" type="line"/>
      <point x="327" y="330" type="line"/>
      <point x="327" y="355" type="line"/>
      <point x="7" y="355" type="line"/>
    </contour>
    <component base="L"/>
  </outline>
</glyph>
<glyph name="uni023E" format="2">
  <advance width="505"/>
  <unicode hex="023E"/>
  <anchor x="239" y="-75" name="bottom"/>
  <anchor x="239" y="760" name="top"/>
  <anchor x="239" y="357" name="center"/>
  <anchor x="458" y="714" name="topright"/>
  <outline>
    <contour>
      <point x="484" y="760" type="line"/>
      <point x="456" y="760" type="line"/>
      <point x="8" y="-75" type="line"/>
      <point x="36" y="-75" type="line"/>
    </contour>
    <component base="T"/>
  </outline>
</glyph>
<glyph name="uni0247" format="2">
  <advance width="540"/>
  <unicode hex="0247"/>
  <anchor x="255" y="-159" name="bottom"/>
  <anchor x="254" y="676" name="top"/>
  <anchor x="490" y="528" name="topright"/>
  <outline>
    <contour>
      <point x="432" y="676" type="line"/>
      <point x="406" y="676" type="line"/>
      <point x="116" y="-159" type="line"/>
      <point x="142" y="-159" type="line"/>
    </contour>
    <component base="e"/>
  </outline>
</glyph>
<glyph name="uni024C" format="2">
  <advance width="545"/>
  <unicode hex="024C"/>
  <anchor x="281" y="0" name="bottom"/>
  <anchor x="273" y="714" name="top"/>
  <anchor x="526" y="714" name="topright"/>
  <outline>
    <contour>
      <point x="127" y="320" type="line"/>
      <point x="127" y="345" type="line"/>
      <point x="10" y="345" type="line"/>
      <point x="10" y="320" type="line"/>
    </contour>
    <component base="R"/>
  </outline>
</glyph>
<glyph name="uni024F" format="2">
  <advance width="406"/>
  <unicode hex="024F"/>
  <anchor x="49" y="-243" name="bottom"/>
  <anchor x="203" y="528" name="top"/>
  <anchor x="387" y="528" name="topright"/>
  <outline>
    <contour>
      <point x="406" y="340" type="line"/>
      <point x="0" y="340" type="line"/>
      <point x="0" y="315" type="line"/>
      <point x="406" y="315" type="line"/>
    </contour>
    <component base="y"/>
  </outline>
</glyph>
<glyph name="eopenreversedhook" format="2">
  <advance width="561"/>
  <unicode hex="025D"/>
  <anchor x="186" y="0" name="bottom"/>
  <anchor x="193" y="528" name="top"/>
  <outline>
    <contour>
      <point x="490" y="286" type="curve" smooth="yes"/>
      <point x="514" y="286"/>
      <point x="538" y="293"/>
      <point x="561" y="300" type="curve"/>
      <point x="548" y="326" type="line"/>
      <point x="532" y="320"/>
      <point x="514" y="314"/>
      <point x="488" y="314" type="curve" smooth="yes"/>
      <point x="444" y="314"/>
      <point x="424" y="342"/>
      <point x="407" y="413" type="curve" smooth="yes"/>
      <point x="396" y="458" type="line"/>
      <point x="316" y="432" type="line"/>
      <point x="321" y="404" type="line"/>
      <point x="375" y="423" type="line"/>
      <point x="393" y="352"/>
      <point x="414" y="286"/>
    </contour>
    <component base="afii10073"/>
  </outline>
</glyph>
<glyph name="uni0268" format="2">
  <advance width="196"/>
  <unicode hex="0268"/>
  <anchor x="99" y="0" name="bottom"/>
  <anchor x="99" y="721" name="top"/>
  <anchor x="178" y="721" name="topright"/>
  <outline>
    <contour>
      <point x="187" y="295" type="line"/>
      <point x="10" y="295" type="line"/>
      <point x="10" y="270" type="line"/>
      <point x="187" y="270" type="line"/>
    </contour>
    <component base="i"/>
  </outline>
</glyph>
<glyph name="uni0289" format="2">
  <advance width="540"/>
  <unicode hex="0289"/>
  <anchor x="270" y="0" name="bottom"/>
  <anchor x="271" y="528" name="top"/>
  <anchor x="520" y="528" name="topright"/>
  <outline>
    <contour>
      <point x="10" y="263" type="line"/>
      <point x="532" y="263" type="line"/>
      <point x="532" y="288" type="line"/>
      <point x="10" y="288" type="line"/>
    </contour>
    <component base="u"/>
  </outline>
</glyph>
<glyph name="uni02FF" format="2">
  <advance width="449"/>
  <unicode hex="02FF"/>
  <outline>
    <contour>
      <point x="226" y="-197" type="line"/>
      <point x="226" y="-163" type="line"/>
      <point x="102" y="-94" type="line"/>
      <point x="409" y="-94" type="line"/>
      <point x="409" y="-70" type="line"/>
      <point x="102" y="-70" type="line"/>
      <point x="226" y="-2" type="line"/>
      <point x="226" y="32" type="line"/>
      <point x="40" y="-74" type="line"/>
      <point x="40" y="-89" type="line"/>
    </contour>
  </outline>
</glyph>
<glyph name="slashshortoverlaycomb" format="2">
  <unicode hex="0337"/>
  <anchor x="1" y="277" name="_center"/>
  <outline>
    <contour>
      <point x="-157" y="189" type="line"/>
      <point x="-145" y="170" type="line"/>
      <point x="159" y="365" type="line"/>
      <point x="146" y="383" type="line"/>
    </contour>
  </outline>
</glyph>
<glyph name="heta" format="2">
  <advance width="317"/>
  <unicode hex="0371"/>
  <anchor x="159" y="0" name="bottom"/>
  <anchor x="159" y="528" name="top"/>
  <outline>
    <contour>
      <point x="112" y="527" type="line"/>
      <point x="85" y="527" type="line"/>
      <point x="85" y="0" type="line"/>
      <point x="112" y="0" type="line"/>
      <point x="112" y="263" type="line"/>
      <point x="290" y="263" type="line"/>
      <point x="290" y="288" type="line"/>
      <point x="112" y="288" type="line"/>
    </contour>
  </outline>
</glyph>
<glyph name="Archaicsampi" format="2">
  <advance width="540"/>
  <unicode hex="0372"/>
  <anchor x="270" y="0" name="bottom"/>
  <anchor x="270" y="714" name="top"/>
  <outline>
    <contour>
      <point x="283" y="0" type="line"/>
      <point x="283" y="689" type="line"/>
      <point x="509" y="689" type="line"/>
      <point x="509" y="714" type="line"/>
      <point x="31" y="714" type="line"/>
      <point x="31" y="689" type="line"/>
      <point x="256" y="689" type="line"/>
      <point x="256" y="0" type="line"/>
    </contour>
    <contour>
      <point x="17" y="714" type="line"/>
      <point x="17" y="519" type="line"/>
      <point x="43" y="519" type="line"/>
      <point x="43" y="714" type="line"/>
    </contour>
    <contour>
      <point x="496" y="714" type="line"/>
      <point x="496" y="519" type="line"/>
      <point x="523" y="519" type="line"/>
      <point x="523" y="714" type="line"/>
    </contour>
  </outline>
</glyph>
<glyph name="archaicsampi" format="2">
  <advance width="447"/>
  <unicode hex="0373"/>
  <anchor x="224" y="0" name="bottom"/>
  <anchor x="224" y="766" name="top"/>
  <outline>
    <contour>
      <point x="237" y="0" type="line"/>
      <point x="237" y="741" type="line"/>
      <point x="411" y="741" type="line"/>
      <point x="411" y="766" type="line"/>
      <point x="36" y="766" type="line"/>
      <point x="36" y="741" type="line"/>
      <point x="210" y="741" type="line"/>
      <point x="210" y="0" type="line"/>
    </contour>
    <contour>
      <point x="398" y="766" type="line"/>
      <point x="398" y="563" type="line"/>
      <point x="424" y="563" type="line"/>
      <point x="424" y="766" type="line"/>
    </contour>
    <contour>
      <point x="23" y="766" type="line"/>
      <point x="23" y="563" type="line"/>
      <point x="50" y="563" type="line"/>
      <point x="50" y="766" type="line"/>
    </contour>
  </outline>
</glyph>
<glyph name="uni0374" format="2">
  <advance width="208"/>
  <unicode hex="0374"/>
  <outline>
    <contour>
      <point x="36" y="563" type="curve"/>
      <point x="36" y="554" type="line"/>
      <point x="55" y="554" type="line"/>
      <point x="97" y="590"/>
      <point x="144" y="653"/>
      <point x="170" y="704" type="curve"/>
      <point x="170" y="714" type="line"/>
      <point x="135" y="714" type="line"/>
      <point x="116" y="667"/>
      <point x="73" y="602"/>
    </contour>
  </outline>
</glyph>
<glyph name="uni0375" format="2">
  <advance width="189"/>
  <unicode hex="0375"/>
  <outline>
    <contour>
      <point x="172" y="-69" type="curve"/>
      <point x="172" y="-60" type="line"/>
      <point x="154" y="-60" type="line"/>
      <point x="111" y="-96"/>
      <point x="64" y="-159"/>
      <point x="38" y="-210" type="curve"/>
      <point x="38" y="-220" type="line"/>
      <point x="73" y="-220" type="line"/>
      <point x="93" y="-173"/>
      <point x="135" y="-108"/>
    </contour>
  </outline>
</glyph>
<glyph name="dieresistonos" format="2">
  <advance width="542"/>
  <unicode hex="0385"/>
  <anchor x="271" y="528" name="_top"/>
  <outline>
    <contour>
      <point x="328" y="830" type="curve"/>
      <point x="328" y="839" type="line"/>
      <point x="296" y="839" type="line"/>
      <point x="288" y="790"/>
      <point x="271" y="723"/>
      <point x="252" y="676" type="curve"/>
      <point x="252" y="669" type="line"/>
      <point x="271" y="669" type="line"/>
      <point x="293" y="716"/>
      <point x="318" y="784"/>
    </contour>
    <contour>
      <point x="174" y="709" type="curve" smooth="yes"/>
      <point x="156" y="709"/>
      <point x="151" y="694"/>
      <point x="151" y="678" type="curve" smooth="yes"/>
      <point x="151" y="661"/>
      <point x="156" y="647"/>
      <point x="174" y="647" type="curve" smooth="yes"/>
      <point x="194" y="647"/>
      <point x="198" y="661"/>
      <point x="198" y="678" type="curve" smooth="yes"/>
      <point x="198" y="694"/>
      <point x="194" y="709"/>
    </contour>
    <contour>
      <point x="367" y="709" type="curve" smooth="yes"/>
      <point x="350" y="709"/>
      <point x="344" y="694"/>
      <point x="344" y="678" type="curve" smooth="yes"/>
      <point x="344" y="661"/>
      <point x="350" y="647"/>
      <point x="367" y="647" type="curve" smooth="yes"/>
      <point x="388" y="647"/>
      <point x="391" y="661"/>
      <point x="391" y="678" type="curve" smooth="yes"/>
      <point x="391" y="694"/>
      <point x="388" y="709"/>
    </contour>
  </outline>
</glyph>
<glyph name="Gamma" format="2">
  <advance width="462"/>
  <unicode hex="0393"/>
  <anchor x="231" y="0" name="bottom"/>
  <anchor x="270" y="714" name="top"/>
  <outline>
    <contour>
      <point x="459" y="714" type="line"/>
      <point x="97" y="714" type="line"/>
      <point x="97" y="0" type="line"/>
      <point x="124" y="0" type="line"/>
      <point x="124" y="689" type="line"/>
      <point x="459" y="689" type="line"/>
    </contour>
  </outline>
</glyph>
<glyph name="Delta" format="2">
  <advance width="531"/>
  <unicode hex="0394"/>
  <anchor x="268" y="0" name="bottom"/>
  <anchor x="268" y="714" name="top"/>
  <outline>
    <contour>
      <point x="279" y="714" type="line"/>
      <point x="252" y="714" type="line"/>
      <point x="4" y="13" type="line"/>
      <point x="4" y="0" type="line"/>
      <point x="527" y="0" type="line"/>
      <point x="527" y="12" type="line"/>
    </contour>
    <contour>
      <point x="493" y="25" type="line"/>
      <point x="38" y="25" type="line"/>
      <point x="227" y="567" type="line" smooth="yes"/>
      <point x="241" y="608"/>
      <point x="255" y="652"/>
      <point x="265" y="682" type="curve"/>
      <point x="273" y="659"/>
      <point x="290" y="611"/>
      <point x="305" y="567" type="curve" smooth="yes"/>
    </contour>
  </outline>
</glyph>
<glyph name="Theta" format="2">
  <advance width="754"/>
  <unicode hex="0398"/>
  <anchor x="355" y="0" name="bottom"/>
  <anchor x="355" y="725" name="top"/>
  <anchor x="355" y="357" name="center"/>
  <anchor x="691" y="725" name="topright"/>
  <outline>
    <contour>
      <point x="528" y="373" type="line"/>
      <point x="189" y="373" type="line"/>
      <point x="189" y="348" type="line"/>
      <point x="528" y="348" type="line"/>
    </contour>
    <component base="O"/>
  </outline>
</glyph>
<glyph name="Lambda" format="2">
  <advance width="531"/>
  <unicode hex="039B"/>
  <anchor x="266" y="0" name="bottom"/>
  <anchor x="266" y="714" name="top"/>
  <outline>
    <contour>
      <point x="279" y="714" type="line"/>
      <point x="252" y="714" type="line"/>
      <point x="0" y="0" type="line"/>
      <point x="29" y="0" type="line"/>
      <point x="229" y="571" type="line" smooth="yes"/>
      <point x="245" y="616"/>
      <point x="256" y="647"/>
      <point x="265" y="677" type="curve"/>
      <point x="275" y="647"/>
      <point x="288" y="609"/>
      <point x="301" y="571" type="curve" smooth="yes"/>
      <point x="502" y="0" type="line"/>
      <point x="531" y="0" type="line"/>
    </contour>
  </outline>
</glyph>
<glyph name="Xi" format="2">
  <advance width="487"/>
  <unicode hex="039E"/>
  <anchor x="244" y="0" name="bottom"/>
  <anchor x="244" y="714" name="top"/>
  <outline>
    <contour>
      <point x="11" y="0" type="line"/>
      <point x="476" y="0" type="line"/>
      <point x="476" y="25" type="line"/>
      <point x="11" y="25" type="line"/>
    </contour>
    <contour>
      <point x="67" y="363" type="line"/>
      <point x="419" y="363" type="line"/>
      <point x="419" y="388" type="line"/>
      <point x="67" y="388" type="line"/>
    </contour>
    <contour>
      <point x="30" y="689" type="line"/>
      <point x="457" y="689" type="line"/>
      <point x="457" y="714" type="line"/>
      <point x="30" y="714" type="line"/>
    </contour>
  </outline>
</glyph>
<glyph name="Pi" format="2">
  <advance width="664"/>
  <unicode hex="03A0"/>
  <anchor x="332" y="0" name="bottom"/>
  <anchor x="332" y="714" name="top"/>
  <outline>
    <contour>
      <point x="97" y="0" type="line"/>
      <point x="124" y="0" type="line"/>
      <point x="124" y="689" type="line"/>
      <point x="540" y="689" type="line"/>
      <point x="540" y="0" type="line"/>
      <point x="567" y="0" type="line"/>
      <point x="567" y="714" type="line"/>
      <point x="97" y="714" type="line"/>
    </contour>
  </outline>
</glyph>
<glyph name="Sigma" format="2">
  <advance width="509"/>
  <unicode hex="03A3"/>
  <anchor x="255" y="0" name="bottom"/>
  <anchor x="255" y="714" name="top"/>
  <outline>
    <contour>
      <point x="25" y="0" type="line"/>
      <point x="499" y="0" type="line"/>
      <point x="499" y="26" type="line"/>
      <point x="167" y="26" type="line" smooth="yes"/>
      <point x="133" y="26"/>
      <point x="99" y="26"/>
      <point x="63" y="26" type="curve"/>
      <point x="323" y="374" type="line"/>
      <point x="71" y="688" type="line"/>
      <point x="110" y="688"/>
      <point x="130" y="688"/>
      <point x="165" y="688" type="curve" smooth="yes"/>
      <point x="472" y="688" type="line"/>
      <point x="472" y="714" type="line"/>
      <point x="31" y="714" type="line"/>
      <point x="31" y="695" type="line"/>
      <point x="288" y="372" type="line"/>
      <point x="25" y="21" type="line"/>
    </contour>
  </outline>
</glyph>
<glyph name="Psi" format="2">
  <advance width="699"/>
  <unicode hex="03A8"/>
  <anchor x="350" y="0" name="bottom"/>
  <anchor x="350" y="714" name="top"/>
  <outline>
    <contour>
      <point x="625" y="714" type="line"/>
      <point x="597" y="714" type="line"/>
      <point x="597" y="481" type="line" smooth="yes"/>
      <point x="597" y="311"/>
      <point x="523" y="252"/>
      <point x="356" y="248" type="curve"/>
      <point x="356" y="714" type="line"/>
      <point x="329" y="714" type="line"/>
      <point x="329" y="248" type="line"/>
      <point x="160" y="252"/>
      <point x="87" y="312"/>
      <point x="87" y="480" type="curve" smooth="yes"/>
      <point x="87" y="714" type="line"/>
      <point x="60" y="714" type="line"/>
      <point x="60" y="478" type="line" smooth="yes"/>
      <point x="60" y="277"/>
      <point x="161" y="227"/>
      <point x="329" y="223" type="curve"/>
      <point x="329" y="0" type="line"/>
      <point x="356" y="0" type="line"/>
      <point x="356" y="223" type="line"/>
      <point x="521" y="227"/>
      <point x="625" y="279"/>
      <point x="625" y="477" type="curve" smooth="yes"/>
    </contour>
  </outline>
</glyph>
<glyph name="Omega" format="2">
  <advance width="725"/>
  <unicode hex="03A9"/>
  <anchor x="363" y="0" name="bottom"/>
  <anchor x="363" y="725" name="top"/>
  <anchor x="18" y="714" name="topleft"/>
  <outline>
    <contour>
      <point x="361" y="700" type="curve" smooth="yes"/>
      <point x="521" y="700"/>
      <point x="634" y="585"/>
      <point x="634" y="385" type="curve" smooth="yes"/>
      <point x="634" y="203"/>
      <point x="561" y="102"/>
      <point x="430" y="23" type="curve"/>
      <point x="430" y="0" type="line"/>
      <point x="686" y="0" type="line"/>
      <point x="686" y="25" type="line"/>
      <point x="475" y="25" type="line"/>
      <point x="586" y="95"/>
      <point x="662" y="199"/>
      <point x="662" y="385" type="curve" smooth="yes"/>
      <point x="662" y="601"/>
      <point x="540" y="725"/>
      <point x="361" y="725" type="curve" smooth="yes"/>
      <point x="184" y="725"/>
      <point x="62" y="586"/>
      <point x="62" y="385" type="curve" smooth="yes"/>
      <point x="62" y="199"/>
      <point x="142" y="97"/>
      <point x="249" y="25" type="curve"/>
      <point x="38" y="25" type="line"/>
      <point x="38" y="0" type="line"/>
      <point x="293" y="0" type="line"/>
      <point x="293" y="23" type="line"/>
      <point x="173" y="103"/>
      <point x="90" y="197"/>
      <point x="90" y="385" type="curve" smooth="yes"/>
      <point x="90" y="577"/>
      <point x="202" y="700"/>
    </contour>
  </outline>
</glyph>
<glyph name="alpha" format="2">
  <advance width="542"/>
  <unicode hex="03B1"/>
  <anchor x="271" y="0" name="bottom"/>
  <anchor x="271" y="528" name="top"/>
  <outline>
    <contour>
      <point x="262" y="15" type="curve" smooth="yes"/>
      <point x="142" y="15"/>
      <point x="83" y="102"/>
      <point x="83" y="262" type="curve" smooth="yes"/>
      <point x="83" y="422"/>
      <point x="151" y="513"/>
      <point x="269" y="513" type="curve" smooth="yes"/>
      <point x="373" y="513"/>
      <point x="431" y="448"/>
      <point x="431" y="281" type="curve" smooth="yes"/>
      <point x="431" y="258" type="line" smooth="yes"/>
      <point x="431" y="111"/>
      <point x="381" y="15"/>
    </contour>
    <contour>
      <point x="262" y="-10" type="curve" smooth="yes"/>
      <point x="355" y="-10"/>
      <point x="407" y="45"/>
      <point x="430" y="111" type="curve"/>
      <point x="432" y="111" type="line"/>
      <point x="432" y="25"/>
      <point x="450" y="-10"/>
      <point x="504" y="-10" type="curve" smooth="yes"/>
      <point x="517" y="-10"/>
      <point x="532" y="-7"/>
      <point x="540" y="-3" type="curve"/>
      <point x="540" y="21" type="line"/>
      <point x="530" y="17"/>
      <point x="518" y="15"/>
      <point x="506" y="15" type="curve" smooth="yes"/>
      <point x="474" y="15"/>
      <point x="458" y="39"/>
      <point x="458" y="119" type="curve" smooth="yes"/>
      <point x="458" y="348" type="line" smooth="yes"/>
      <point x="458" y="439"/>
      <point x="464" y="484"/>
      <point x="475" y="528" type="curve"/>
      <point x="450" y="528" type="line"/>
      <point x="441" y="498"/>
      <point x="432" y="463"/>
      <point x="432" y="427" type="curve"/>
      <point x="430" y="427" type="line"/>
      <point x="408" y="500"/>
      <point x="352" y="538"/>
      <point x="268" y="538" type="curve" smooth="yes"/>
      <point x="135" y="538"/>
      <point x="55" y="439"/>
      <point x="55" y="262" type="curve" smooth="yes"/>
      <point x="55" y="86"/>
      <point x="124" y="-10"/>
    </contour>
  </outline>
</glyph>
<glyph name="beta" format="2">
  <advance width="560"/>
  <unicode hex="03B2"/>
  <anchor x="304" y="0" name="bottom"/>
  <anchor x="289" y="765" name="top"/>
  <anchor x="539" y="765" name="topright"/>
  <outline>
    <contour>
      <point x="297" y="765" type="curve" smooth="yes"/>
      <point x="161" y="765"/>
      <point x="85" y="675"/>
      <point x="85" y="540" type="curve" smooth="yes"/>
      <point x="85" y="-240" type="line"/>
      <point x="112" y="-240" type="line"/>
      <point x="112" y="54" type="line"/>
      <point x="170" y="14"/>
      <point x="226" y="-4"/>
      <point x="290" y="-4" type="curve" smooth="yes"/>
      <point x="428" y="-4"/>
      <point x="511" y="81"/>
      <point x="511" y="209" type="curve" smooth="yes"/>
      <point x="511" y="324"/>
      <point x="455" y="387"/>
      <point x="361" y="402" type="curve"/>
      <point x="361" y="404" type="line"/>
      <point x="440" y="420"/>
      <point x="486" y="491"/>
      <point x="486" y="581" type="curve" smooth="yes"/>
      <point x="486" y="698"/>
      <point x="415" y="765"/>
    </contour>
    <contour>
      <point x="297" y="740" type="curve" smooth="yes"/>
      <point x="402" y="740"/>
      <point x="457" y="680"/>
      <point x="457" y="581" type="curve" smooth="yes"/>
      <point x="457" y="468"/>
      <point x="393" y="414"/>
      <point x="292" y="414" type="curve" smooth="yes"/>
      <point x="237" y="414" type="line"/>
      <point x="237" y="389" type="line"/>
      <point x="293" y="389" type="line" smooth="yes"/>
      <point x="429" y="389"/>
      <point x="483" y="319"/>
      <point x="483" y="209" type="curve" smooth="yes"/>
      <point x="483" y="93"/>
      <point x="410" y="21"/>
      <point x="289" y="21" type="curve" smooth="yes"/>
      <point x="222" y="21"/>
      <point x="167" y="41"/>
      <point x="112" y="81" type="curve"/>
      <point x="112" y="536" type="line" smooth="yes"/>
      <point x="112" y="664"/>
      <point x="178" y="740"/>
    </contour>
  </outline>
</glyph>
<glyph name="gamma" format="2">
  <advance width="432"/>
  <unicode hex="03B3"/>
  <anchor x="216" y="-240" name="bottom"/>
  <anchor x="216" y="528" name="top"/>
  <anchor x="414" y="528" name="topright"/>
  <outline>
    <contour>
      <point x="241" y="42" type="curve" smooth="yes"/>
      <point x="419" y="528" type="line"/>
      <point x="391" y="528" type="line"/>
      <point x="252" y="141" type="line" smooth="yes"/>
      <point x="239" y="106"/>
      <point x="229" y="81"/>
      <point x="218" y="47" type="curve"/>
      <point x="216" y="47" type="line"/>
      <point x="204" y="84"/>
      <point x="194" y="106"/>
      <point x="180" y="142" type="curve" smooth="yes"/>
      <point x="30" y="528" type="line"/>
      <point x="0" y="528" type="line"/>
      <point x="203" y="15" type="line"/>
      <point x="184" y="-48"/>
      <point x="161" y="-153"/>
      <point x="161" y="-240" type="curve"/>
      <point x="189" y="-240" type="line"/>
      <point x="191" y="-154"/>
      <point x="205" y="-55"/>
    </contour>
  </outline>
</glyph>
<glyph name="delta" format="2">
  <advance width="534"/>
  <unicode hex="03B4"/>
  <anchor x="267" y="0" name="bottom"/>
  <anchor x="267" y="768" name="top"/>
  <outline>
    <contour>
      <point x="291" y="768" type="curve" smooth="yes"/>
      <point x="199" y="768"/>
      <point x="134" y="715"/>
      <point x="134" y="633" type="curve" smooth="yes"/>
      <point x="134" y="553"/>
      <point x="178" y="520"/>
      <point x="262" y="468" type="curve"/>
      <point x="114" y="420"/>
      <point x="54" y="330"/>
      <point x="54" y="211" type="curve" smooth="yes"/>
      <point x="54" y="73"/>
      <point x="137" y="-10"/>
      <point x="268" y="-10" type="curve" smooth="yes"/>
      <point x="405" y="-10"/>
      <point x="479" y="84"/>
      <point x="479" y="221" type="curve" smooth="yes"/>
      <point x="479" y="357"/>
      <point x="395" y="416"/>
      <point x="295" y="478" type="curve" smooth="yes"/>
      <point x="209" y="531"/>
      <point x="162" y="560"/>
      <point x="162" y="633" type="curve" smooth="yes"/>
      <point x="162" y="700"/>
      <point x="207" y="743"/>
      <point x="291" y="743" type="curve" smooth="yes"/>
      <point x="347" y="743"/>
      <point x="393" y="731"/>
      <point x="448" y="700" type="curve"/>
      <point x="460" y="722" type="line"/>
      <point x="398" y="757"/>
      <point x="345" y="768"/>
    </contour>
    <contour>
      <point x="288" y="451" type="curve"/>
      <point x="386" y="397"/>
      <point x="451" y="330"/>
      <point x="451" y="221" type="curve" smooth="yes"/>
      <point x="451" y="92"/>
      <point x="386" y="15"/>
      <point x="268" y="15" type="curve" smooth="yes"/>
      <point x="156" y="15"/>
      <point x="82" y="87"/>
      <point x="82" y="211" type="curve" smooth="yes"/>
      <point x="82" y="343"/>
      <point x="159" y="414"/>
    </contour>
  </outline>
</glyph>
<glyph name="zeta" format="2">
  <advance width="430"/>
  <unicode hex="03B6"/>
  <anchor x="216" y="-197" name="bottom"/>
  <anchor x="216" y="760" name="top"/>
  <outline>
    <contour>
      <point x="397" y="-77" type="curve" smooth="yes"/>
      <point x="397" y="3"/>
      <point x="345" y="21"/>
      <point x="257" y="36" type="curve" smooth="yes"/>
      <point x="138" y="56"/>
      <point x="83" y="113"/>
      <point x="83" y="224" type="curve" smooth="yes"/>
      <point x="83" y="401"/>
      <point x="172" y="500"/>
      <point x="403" y="738" type="curve"/>
      <point x="403" y="760" type="line"/>
      <point x="86" y="760" type="line"/>
      <point x="86" y="735" type="line"/>
      <point x="259" y="735" type="line" smooth="yes"/>
      <point x="297" y="735"/>
      <point x="330" y="735"/>
      <point x="366" y="736" type="curve"/>
      <point x="152" y="511"/>
      <point x="55" y="404"/>
      <point x="55" y="224" type="curve" smooth="yes"/>
      <point x="55" y="102"/>
      <point x="114" y="34"/>
      <point x="247" y="12" type="curve" smooth="yes"/>
      <point x="333" y="-2"/>
      <point x="369" y="-17"/>
      <point x="369" y="-77" type="curve" smooth="yes"/>
      <point x="369" y="-110"/>
      <point x="352" y="-152"/>
      <point x="317" y="-197" type="curve"/>
      <point x="348" y="-197" type="line"/>
      <point x="380" y="-155"/>
      <point x="397" y="-117"/>
    </contour>
  </outline>
</glyph>
<glyph name="theta" format="2">
  <advance width="524"/>
  <unicode hex="03B8"/>
  <anchor x="263" y="0" name="bottom"/>
  <anchor x="263" y="775" name="top"/>
  <anchor x="502" y="775" name="topright"/>
  <outline>
    <contour>
      <point x="471" y="394" type="curve" smooth="yes"/>
      <point x="471" y="651"/>
      <point x="399" y="775"/>
      <point x="263" y="775" type="curve" smooth="yes"/>
      <point x="129" y="775"/>
      <point x="53" y="651"/>
      <point x="53" y="392" type="curve" smooth="yes"/>
      <point x="53" y="116"/>
      <point x="126" y="-10"/>
      <point x="261" y="-10" type="curve" smooth="yes"/>
      <point x="397" y="-10"/>
      <point x="471" y="116"/>
    </contour>
    <contour>
      <point x="261" y="15" type="curve" smooth="yes"/>
      <point x="143" y="15"/>
      <point x="84" y="137"/>
      <point x="81" y="382" type="curve"/>
      <point x="443" y="382" type="line"/>
      <point x="440" y="137"/>
      <point x="382" y="15"/>
    </contour>
    <contour>
      <point x="263" y="750" type="curve" smooth="yes"/>
      <point x="381" y="750"/>
      <point x="440" y="636"/>
      <point x="442" y="407" type="curve"/>
      <point x="81" y="407" type="line"/>
      <point x="84" y="636"/>
      <point x="146" y="750"/>
    </contour>
  </outline>
</glyph>
<glyph name="lambda" format="2">
  <advance width="454"/>
  <unicode hex="03BB"/>
  <anchor x="227" y="0" name="bottom"/>
  <anchor x="227" y="766" name="top"/>
  <outline>
    <contour>
      <point x="-6" y="0" type="line"/>
      <point x="25" y="0" type="line"/>
      <point x="195" y="433" type="line" smooth="yes"/>
      <point x="204" y="456"/>
      <point x="213" y="480"/>
      <point x="222" y="504" type="curve"/>
      <point x="224" y="504" type="line"/>
      <point x="230" y="479"/>
      <point x="239" y="458"/>
      <point x="249" y="426" type="curve" smooth="yes"/>
      <point x="366" y="55" type="line" smooth="yes"/>
      <point x="379" y="14"/>
      <point x="397" y="-8"/>
      <point x="432" y="-8" type="curve" smooth="yes"/>
      <point x="445" y="-8"/>
      <point x="453" y="-6"/>
      <point x="460" y="-3" type="curve"/>
      <point x="460" y="21" type="line"/>
      <point x="454" y="19"/>
      <point x="446" y="17"/>
      <point x="436" y="17" type="curve" smooth="yes"/>
      <point x="418" y="17"/>
      <point x="404" y="27"/>
      <point x="392" y="64" type="curve" smooth="yes"/>
      <point x="202" y="660" type="line" smooth="yes"/>
      <point x="175" y="743"/>
      <point x="149" y="766"/>
      <point x="92" y="766" type="curve" smooth="yes"/>
      <point x="71" y="766"/>
      <point x="57" y="763"/>
      <point x="45" y="759" type="curve"/>
      <point x="45" y="733" type="line"/>
      <point x="56" y="737"/>
      <point x="69" y="741"/>
      <point x="87" y="741" type="curve" smooth="yes"/>
      <point x="129" y="741"/>
      <point x="154" y="722"/>
      <point x="177" y="647" type="curve" smooth="yes"/>
      <point x="211" y="537" type="line"/>
    </contour>
  </outline>
</glyph>
<glyph name="nu" format="2">
  <advance width="466"/>
  <unicode hex="03BD"/>
  <anchor x="233" y="0" name="bottom"/>
  <anchor x="233" y="528" name="top"/>
  <outline>
    <contour>
      <point x="-1" y="528" type="line"/>
      <point x="185" y="0" type="line"/>
      <point x="210" y="0" type="line"/>
      <point x="354" y="133"/>
      <point x="432" y="296"/>
      <point x="432" y="528" type="curve"/>
      <point x="405" y="528" type="line"/>
      <point x="405" y="307"/>
      <point x="329" y="147"/>
      <point x="203" y="30" type="curve"/>
      <point x="201" y="30" type="line"/>
      <point x="196" y="44"/>
      <point x="191" y="55"/>
      <point x="187" y="66" type="curve" smooth="yes"/>
      <point x="29" y="528" type="line"/>
    </contour>
  </outline>
</glyph>
<glyph name="xi" format="2">
  <advance width="423"/>
  <unicode hex="03BE"/>
  <anchor x="211" y="-197" name="bottom"/>
  <anchor x="225" y="760" name="top"/>
  <outline>
    <contour>
      <point x="55" y="210" type="curve" smooth="yes"/>
      <point x="55" y="88"/>
      <point x="121" y="42"/>
      <point x="238" y="17" type="curve" smooth="yes"/>
      <point x="342" y="-5"/>
      <point x="366" y="-24"/>
      <point x="366" y="-77" type="curve" smooth="yes"/>
      <point x="366" y="-107"/>
      <point x="353" y="-140"/>
      <point x="316" y="-197" type="curve"/>
      <point x="346" y="-197" type="line"/>
      <point x="375" y="-152"/>
      <point x="393" y="-113"/>
      <point x="393" y="-77" type="curve" smooth="yes"/>
      <point x="393" y="-3"/>
      <point x="350" y="17"/>
      <point x="251" y="40" type="curve" smooth="yes"/>
      <point x="147" y="64"/>
      <point x="83" y="96"/>
      <point x="83" y="210" type="curve" smooth="yes"/>
      <point x="83" y="334"/>
      <point x="176" y="390"/>
      <point x="296" y="390" type="curve" smooth="yes"/>
      <point x="359" y="390" type="line"/>
      <point x="359" y="415" type="line"/>
      <point x="296" y="415" type="line" smooth="yes"/>
      <point x="174" y="415"/>
      <point x="113" y="455"/>
      <point x="113" y="549" type="curve" smooth="yes"/>
      <point x="113" y="688"/>
      <point x="239" y="735"/>
      <point x="352" y="735" type="curve" smooth="yes"/>
      <point x="383" y="735" type="line"/>
      <point x="383" y="760" type="line"/>
      <point x="85" y="760" type="line"/>
      <point x="85" y="735" type="line"/>
      <point x="132" y="735" type="line" smooth="yes"/>
      <point x="184" y="735"/>
      <point x="207" y="735"/>
      <point x="240" y="737" type="curve"/>
      <point x="156" y="715"/>
      <point x="85" y="658"/>
      <point x="85" y="549" type="curve" smooth="yes"/>
      <point x="85" y="464"/>
      <point x="131" y="417"/>
      <point x="208" y="402" type="curve"/>
      <point x="208" y="400" type="line"/>
      <point x="120" y="378"/>
      <point x="55" y="319"/>
    </contour>
  </outline>
</glyph>
<glyph name="pi" format="2">
  <advance width="552"/>
  <unicode hex="03C0"/>
  <anchor x="276" y="0" name="bottom"/>
  <anchor x="276" y="528" name="top"/>
  <outline>
    <contour>
      <point x="483" y="15" type="curve" smooth="yes"/>
      <point x="441" y="15"/>
      <point x="424" y="45"/>
      <point x="424" y="100" type="curve" smooth="yes"/>
      <point x="424" y="505" type="line"/>
      <point x="527" y="505" type="line"/>
      <point x="527" y="528" type="line"/>
      <point x="91" y="528" type="line"/>
      <point x="11" y="524" type="line"/>
      <point x="11" y="505" type="line"/>
      <point x="112" y="505" type="line"/>
      <point x="112" y="0" type="line"/>
      <point x="139" y="0" type="line"/>
      <point x="139" y="505" type="line"/>
      <point x="397" y="505" type="line"/>
      <point x="397" y="92" type="line" smooth="yes"/>
      <point x="397" y="25"/>
      <point x="426" y="-10"/>
      <point x="479" y="-10" type="curve" smooth="yes"/>
      <point x="497" y="-10"/>
      <point x="512" y="-7"/>
      <point x="521" y="-4" type="curve"/>
      <point x="521" y="21" type="line"/>
      <point x="513" y="18"/>
      <point x="502" y="15"/>
    </contour>
  </outline>
</glyph>
<glyph name="sigma1" format="2">
  <advance width="442"/>
  <unicode hex="03C2"/>
  <anchor x="221" y="-197" name="bottom"/>
  <anchor x="255" y="528" name="top"/>
  <outline>
    <contour>
      <point x="287" y="538" type="curve" smooth="yes"/>
      <point x="137" y="538"/>
      <point x="55" y="438"/>
      <point x="55" y="268" type="curve" smooth="yes"/>
      <point x="55" y="133"/>
      <point x="109" y="45"/>
      <point x="244" y="17" type="curve" smooth="yes"/>
      <point x="332" y="-1"/>
      <point x="367" y="-17"/>
      <point x="367" y="-75" type="curve" smooth="yes"/>
      <point x="367" y="-112"/>
      <point x="349" y="-148"/>
      <point x="315" y="-197" type="curve"/>
      <point x="345" y="-197" type="line"/>
      <point x="371" y="-161"/>
      <point x="394" y="-122"/>
      <point x="394" y="-75" type="curve" smooth="yes"/>
      <point x="394" y="2"/>
      <point x="346" y="21"/>
      <point x="257" y="40" type="curve" smooth="yes"/>
      <point x="128" y="67"/>
      <point x="83" y="144"/>
      <point x="83" y="268" type="curve" smooth="yes"/>
      <point x="83" y="425"/>
      <point x="153" y="513"/>
      <point x="286" y="513" type="curve" smooth="yes"/>
      <point x="326" y="513"/>
      <point x="365" y="506"/>
      <point x="399" y="492" type="curve"/>
      <point x="404" y="517" type="line"/>
      <point x="371" y="530"/>
      <point x="332" y="538"/>
    </contour>
  </outline>
</glyph>
<glyph name="tau" format="2">
  <advance width="403"/>
  <unicode hex="03C4"/>
  <anchor x="201" y="0" name="bottom"/>
  <anchor x="201" y="528" name="top"/>
  <outline>
    <contour>
      <point x="370" y="528" type="line"/>
      <point x="78" y="528" type="line"/>
      <point x="9" y="523" type="line"/>
      <point x="9" y="503" type="line"/>
      <point x="146" y="503" type="line"/>
      <point x="146" y="149" type="line" smooth="yes"/>
      <point x="146" y="52"/>
      <point x="179" y="-9"/>
      <point x="272" y="-9" type="curve" smooth="yes"/>
      <point x="301" y="-9"/>
      <point x="329" y="-4"/>
      <point x="347" y="3" type="curve"/>
      <point x="347" y="27" type="line"/>
      <point x="326" y="20"/>
      <point x="300" y="15"/>
      <point x="275" y="15" type="curve" smooth="yes"/>
      <point x="197" y="15"/>
      <point x="173" y="63"/>
      <point x="173" y="154" type="curve" smooth="yes"/>
      <point x="173" y="503" type="line"/>
      <point x="370" y="503" type="line"/>
    </contour>
  </outline>
</glyph>
<glyph name="upsilon" format="2">
  <advance width="550"/>
  <unicode hex="03C5"/>
  <anchor x="275" y="0" name="bottom"/>
  <anchor x="275" y="528" name="top"/>
  <outline>
    <contour>
      <point x="270" y="-10" type="curve" smooth="yes"/>
      <point x="412" y="-10"/>
      <point x="485" y="93"/>
      <point x="485" y="292" type="curve" smooth="yes"/>
      <point x="485" y="375"/>
      <point x="477" y="452"/>
      <point x="458" y="528" type="curve"/>
      <point x="429" y="528" type="line"/>
      <point x="449" y="452"/>
      <point x="457" y="371"/>
      <point x="457" y="292" type="curve" smooth="yes"/>
      <point x="457" y="107"/>
      <point x="393" y="15"/>
      <point x="272" y="15" type="curve" smooth="yes"/>
      <point x="163" y="15"/>
      <point x="104" y="82"/>
      <point x="104" y="235" type="curve" smooth="yes"/>
      <point x="104" y="528" type="line"/>
      <point x="77" y="528" type="line"/>
      <point x="77" y="231" type="line" smooth="yes"/>
      <point x="77" y="69"/>
      <point x="146" y="-10"/>
    </contour>
  </outline>
</glyph>
<glyph name="psi" format="2">
  <advance width="658"/>
  <unicode hex="03C8"/>
  <anchor x="330" y="-240" name="bottom"/>
  <anchor x="330" y="759" name="top"/>
  <outline>
    <contour>
      <point x="342" y="20" type="curve"/>
      <point x="342" y="759" type="line"/>
      <point x="315" y="759" type="line"/>
      <point x="315" y="20" type="line"/>
      <point x="167" y="26"/>
      <point x="103" y="120"/>
      <point x="103" y="270" type="curve" smooth="yes"/>
      <point x="103" y="528" type="line"/>
      <point x="77" y="528" type="line"/>
      <point x="77" y="267" type="line" smooth="yes"/>
      <point x="77" y="105"/>
      <point x="148" y="1"/>
      <point x="315" y="-5" type="curve"/>
      <point x="315" y="-240" type="line"/>
      <point x="342" y="-240" type="line"/>
      <point x="342" y="-5" type="line"/>
      <point x="525" y="4"/>
      <point x="595" y="127"/>
      <point x="595" y="303" type="curve" smooth="yes"/>
      <point x="595" y="394"/>
      <point x="583" y="460"/>
      <point x="564" y="528" type="curve"/>
      <point x="536" y="528" type="line"/>
      <point x="556" y="456"/>
      <point x="567" y="390"/>
      <point x="567" y="303" type="curve" smooth="yes"/>
      <point x="567" y="132"/>
      <point x="500" y="26"/>
    </contour>
  </outline>
</glyph>
<glyph name="uni03D2" format="2">
  <advance width="490"/>
  <unicode hex="03D2"/>
  <anchor x="245" y="714" name="top"/>
  <outline>
    <contour>
      <point x="241" y="300" type="curve"/>
      <point x="31" y="714" type="line"/>
      <point x="0" y="714" type="line"/>
      <point x="228" y="271" type="line"/>
      <point x="228" y="0" type="line"/>
      <point x="255" y="0" type="line"/>
      <point x="255" y="271" type="line"/>
      <point x="326" y="467"/>
      <point x="384" y="591"/>
      <point x="424" y="658" type="curve" smooth="yes"/>
      <point x="438" y="681"/>
      <point x="455" y="695"/>
      <point x="475" y="695" type="curve" smooth="yes"/>
      <point x="481" y="695"/>
      <point x="488" y="694"/>
      <point x="495" y="692" type="curve"/>
      <point x="495" y="717" type="line"/>
      <point x="487" y="719"/>
      <point x="479" y="720"/>
      <point x="475" y="720" type="curve" smooth="yes"/>
      <point x="443" y="720"/>
      <point x="422" y="700"/>
      <point x="405" y="676" type="curve" smooth="yes"/>
      <point x="372" y="629"/>
      <point x="298" y="465"/>
    </contour>
  </outline>
</glyph>
<glyph name="uni03D7" format="2">
  <advance width="582"/>
  <unicode hex="03D7"/>
  <outline>
    <contour>
      <point x="488" y="-240" type="curve" smooth="yes"/>
      <point x="540" y="-240"/>
      <point x="565" y="-206"/>
      <point x="565" y="-161" type="curve" smooth="yes"/>
      <point x="565" y="24" type="line"/>
      <point x="555" y="22"/>
      <point x="547" y="20"/>
      <point x="534" y="20" type="curve" smooth="yes"/>
      <point x="471" y="20"/>
      <point x="432" y="54"/>
      <point x="432" y="180" type="curve" smooth="yes"/>
      <point x="432" y="306"/>
      <point x="472" y="447"/>
      <point x="524" y="528" type="curve"/>
      <point x="490" y="528" type="line"/>
      <point x="130" y="97" type="line"/>
      <point x="149" y="142"/>
      <point x="183" y="234"/>
      <point x="183" y="362" type="curve" smooth="yes"/>
      <point x="183" y="486"/>
      <point x="138" y="538"/>
      <point x="70" y="538" type="curve" smooth="yes"/>
      <point x="45" y="538"/>
      <point x="25" y="533"/>
      <point x="11" y="525" type="curve"/>
      <point x="12" y="499" type="line"/>
      <point x="28" y="508"/>
      <point x="47" y="513"/>
      <point x="68" y="513" type="curve" smooth="yes"/>
      <point x="121" y="513"/>
      <point x="155" y="474"/>
      <point x="155" y="358" type="curve" smooth="yes"/>
      <point x="155" y="225"/>
      <point x="107" y="74"/>
      <point x="47" y="0" type="curve"/>
      <point x="82" y="0" type="line"/>
      <point x="455" y="451" type="line"/>
      <point x="432" y="403"/>
      <point x="404" y="305"/>
      <point x="404" y="177" type="curve" smooth="yes"/>
      <point x="404" y="42"/>
      <point x="445" y="-4"/>
      <point x="539" y="-4" type="curve"/>
      <point x="539" y="-155" type="line" smooth="yes"/>
      <point x="539" y="-195"/>
      <point x="520" y="-216"/>
      <point x="486" y="-216" type="curve" smooth="yes"/>
      <point x="473" y="-216"/>
      <point x="457" y="-212"/>
      <point x="446" y="-207" type="curve"/>
      <point x="446" y="-231" type="line"/>
      <point x="456" y="-236"/>
      <point x="470" y="-240"/>
    </contour>
  </outline>
</glyph>
<glyph name="uni03D8" format="2">
  <advance width="719"/>
  <unicode hex="03D8"/>
  <anchor x="360" y="0" name="bottom"/>
  <anchor x="360" y="726" name="top"/>
  <outline>
    <contour>
      <point x="360" y="726" type="curve" smooth="yes"/>
      <point x="168" y="726"/>
      <point x="59" y="609"/>
      <point x="59" y="440" type="curve" smooth="yes"/>
      <point x="59" y="267"/>
      <point x="160" y="154"/>
      <point x="352" y="150" type="curve"/>
      <point x="352" y="0" type="line"/>
      <point x="379" y="0" type="line"/>
      <point x="379" y="151" type="line"/>
      <point x="562" y="154"/>
      <point x="659" y="269"/>
      <point x="659" y="439" type="curve" smooth="yes"/>
      <point x="659" y="615"/>
      <point x="556" y="726"/>
    </contour>
    <contour>
      <point x="360" y="701" type="curve" smooth="yes"/>
      <point x="534" y="701"/>
      <point x="630" y="600"/>
      <point x="630" y="439" type="curve" smooth="yes"/>
      <point x="630" y="281"/>
      <point x="549" y="175"/>
      <point x="363" y="175" type="curve" smooth="yes"/>
      <point x="177" y="175"/>
      <point x="87" y="282"/>
      <point x="87" y="440" type="curve" smooth="yes"/>
      <point x="87" y="592"/>
      <point x="182" y="701"/>
    </contour>
  </outline>
</glyph>
<glyph name="uni03DB" format="2">
  <advance width="442"/>
  <unicode hex="03DB"/>
  <anchor x="221" y="-205" name="bottom"/>
  <anchor x="221" y="528" name="top"/>
  <outline>
    <contour>
      <point x="270" y="-205" type="curve" smooth="yes"/>
      <point x="351" y="-205"/>
      <point x="394" y="-148"/>
      <point x="394" y="-80" type="curve" smooth="yes"/>
      <point x="394" y="2"/>
      <point x="346" y="21"/>
      <point x="257" y="40" type="curve" smooth="yes"/>
      <point x="128" y="67"/>
      <point x="83" y="144"/>
      <point x="83" y="268" type="curve" smooth="yes"/>
      <point x="83" y="425"/>
      <point x="153" y="513"/>
      <point x="286" y="513" type="curve" smooth="yes"/>
      <point x="326" y="513"/>
      <point x="365" y="506"/>
      <point x="399" y="492" type="curve"/>
      <point x="404" y="517" type="line"/>
      <point x="371" y="530"/>
      <point x="332" y="538"/>
      <point x="287" y="538" type="curve" smooth="yes"/>
      <point x="137" y="538"/>
      <point x="55" y="438"/>
      <point x="55" y="268" type="curve" smooth="yes"/>
      <point x="55" y="133"/>
      <point x="109" y="45"/>
      <point x="244" y="17" type="curve" smooth="yes"/>
      <point x="331" y="-1"/>
      <point x="367" y="-17"/>
      <point x="367" y="-80" type="curve" smooth="yes"/>
      <point x="367" y="-137"/>
      <point x="335" y="-180"/>
      <point x="268" y="-180" type="curve" smooth="yes"/>
      <point x="228" y="-180"/>
      <point x="193" y="-171"/>
      <point x="159" y="-161" type="curve"/>
      <point x="159" y="-188" type="line"/>
      <point x="195" y="-199"/>
      <point x="229" y="-205"/>
    </contour>
  </outline>
</glyph>
<glyph name="uni03F1" format="2">
  <advance width="530"/>
  <unicode hex="03F1"/>
  <anchor x="265" y="-240" name="bottom"/>
  <anchor x="265" y="528" name="top"/>
  <outline>
    <contour>
      <point x="277" y="538" type="curve" smooth="yes"/>
      <point x="117" y="538"/>
      <point x="61" y="406"/>
      <point x="61" y="170" type="curve" smooth="yes"/>
      <point x="61" y="-101"/>
      <point x="132" y="-185"/>
      <point x="305" y="-185" type="curve" smooth="yes"/>
      <point x="367" y="-185"/>
      <point x="383" y="-189"/>
      <point x="383" y="-215" type="curve" smooth="yes"/>
      <point x="383" y="-225"/>
      <point x="381" y="-235"/>
      <point x="378" y="-240" type="curve"/>
      <point x="405" y="-240" type="line"/>
      <point x="408" y="-233"/>
      <point x="411" y="-222"/>
      <point x="411" y="-210" type="curve" smooth="yes"/>
      <point x="411" y="-167"/>
      <point x="377" y="-160"/>
      <point x="307" y="-160" type="curve" smooth="yes"/>
      <point x="160" y="-160"/>
      <point x="112" y="-89"/>
      <point x="95" y="54" type="curve"/>
      <point x="97" y="54" type="line"/>
      <point x="119" y="32"/>
      <point x="181" y="-10"/>
      <point x="257" y="-10" type="curve" smooth="yes"/>
      <point x="396" y="-10"/>
      <point x="474" y="85"/>
      <point x="474" y="268" type="curve" smooth="yes"/>
      <point x="474" y="448"/>
      <point x="389" y="538"/>
    </contour>
    <contour>
      <point x="274" y="513" type="curve" smooth="yes"/>
      <point x="373" y="513"/>
      <point x="446" y="435"/>
      <point x="446" y="266" type="curve" smooth="yes"/>
      <point x="446" y="100"/>
      <point x="380" y="15"/>
      <point x="259" y="15" type="curve" smooth="yes"/>
      <point x="193" y="15"/>
      <point x="136" y="48"/>
      <point x="93" y="87" type="curve"/>
      <point x="90" y="109"/>
      <point x="89" y="140"/>
      <point x="89" y="173" type="curve" smooth="yes"/>
      <point x="89" y="396"/>
      <point x="137" y="513"/>
    </contour>
  </outline>
</glyph>
<glyph name="uni03FB" format="2">
  <advance width="587"/>
  <unicode hex="03FB"/>
  <anchor x="294" y="-240" name="bottom"/>
  <anchor x="294" y="528" name="top"/>
  <outline>
    <contour>
      <point x="88" y="-240" type="line"/>
      <point x="115" y="-240" type="line"/>
      <point x="115" y="428" type="line" smooth="yes"/>
      <point x="115" y="450"/>
      <point x="115" y="463"/>
      <point x="114" y="477" type="curve"/>
      <point x="280" y="195" type="line"/>
      <point x="306" y="195" type="line"/>
      <point x="474" y="477" type="line"/>
      <point x="473" y="463"/>
      <point x="473" y="449"/>
      <point x="473" y="428" type="curve" smooth="yes"/>
      <point x="473" y="0" type="line"/>
      <point x="500" y="0" type="line"/>
      <point x="500" y="528" type="line"/>
      <point x="475" y="528" type="line"/>
      <point x="293" y="222" type="line"/>
      <point x="113" y="528" type="line"/>
      <point x="88" y="528" type="line"/>
    </contour>
  </outline>
</glyph>
<glyph name="uni03FC" format="2">
  <advance width="538"/>
  <unicode hex="03FC"/>
  <anchor x="269" y="-240" name="bottom"/>
  <anchor x="269" y="528" name="top"/>
  <outline>
    <contour>
      <point x="84" y="-240" type="line"/>
      <point x="111" y="-240" type="line"/>
      <point x="111" y="-127" type="line"/>
      <point x="312" y="-127" type="line"/>
      <point x="312" y="-102" type="line"/>
      <point x="111" y="-102" type="line"/>
      <point x="111" y="-14"/>
      <point x="111" y="4"/>
      <point x="109" y="46" type="curve"/>
      <point x="111" y="46" type="line"/>
      <point x="148" y="15"/>
      <point x="201" y="-10"/>
      <point x="273" y="-10" type="curve" smooth="yes"/>
      <point x="410" y="-10"/>
      <point x="483" y="91"/>
      <point x="483" y="266" type="curve" smooth="yes"/>
      <point x="483" y="446"/>
      <point x="418" y="538"/>
      <point x="284" y="538" type="curve" smooth="yes"/>
      <point x="150" y="538"/>
      <point x="84" y="449"/>
      <point x="84" y="284" type="curve" smooth="yes"/>
      <point x="84" y="-102" type="line"/>
      <point x="-1" y="-102" type="line"/>
      <point x="-1" y="-127" type="line"/>
      <point x="84" y="-127" type="line"/>
    </contour>
    <contour>
      <point x="275" y="15" type="curve" smooth="yes"/>
      <point x="208" y="15"/>
      <point x="152" y="39"/>
      <point x="111" y="76" type="curve"/>
      <point x="111" y="276" type="line" smooth="yes"/>
      <point x="111" y="428"/>
      <point x="163" y="512"/>
      <point x="284" y="512" type="curve" smooth="yes"/>
      <point x="402" y="512"/>
      <point x="455" y="426"/>
      <point x="455" y="266" type="curve" smooth="yes"/>
      <point x="455" y="100"/>
      <point x="388" y="15"/>
    </contour>
  </outline>
</glyph>
<glyph name="uni0488" format="2">
  <advance width="930"/>
  <unicode hex="0488"/>
  <outline>
    <contour>
      <point x="638" y="470" type="curve"/>
      <point x="659" y="470" type="line"/>
      <point x="665" y="510"/>
      <point x="687" y="529"/>
      <point x="726" y="529" type="curve" smooth="yes"/>
      <point x="760" y="529"/>
      <point x="787" y="505"/>
      <point x="793" y="470" type="curve"/>
      <point x="816" y="470" type="line"/>
      <point x="810" y="520"/>
      <point x="777" y="549"/>
      <point x="726" y="549" type="curve" smooth="yes"/>
      <point x="672" y="549"/>
      <point x="643" y="523"/>
    </contour>
    <contour>
      <point x="109" y="-12" type="curve"/>
      <point x="130" y="-12" type="line"/>
      <point x="135" y="28"/>
      <point x="157" y="47"/>
      <point x="197" y="47" type="curve" smooth="yes"/>
      <point x="231" y="47"/>
      <point x="258" y="23"/>
      <point x="264" y="-12" type="curve"/>
      <point x="287" y="-12" type="line"/>
      <point x="281" y="39"/>
      <point x="249" y="67"/>
      <point x="197" y="67" type="curve" smooth="yes"/>
      <point x="143" y="67"/>
      <point x="114" y="41"/>
    </contour>
    <contour>
      <point x="372" y="-148" type="curve"/>
      <point x="393" y="-148" type="line"/>
      <point x="399" y="-109"/>
      <point x="422" y="-89"/>
      <point x="460" y="-89" type="curve" smooth="yes"/>
      <point x="494" y="-89"/>
      <point x="521" y="-113"/>
      <point x="527" y="-148" type="curve"/>
      <point x="550" y="-148" type="line"/>
      <point x="544" y="-98"/>
      <point x="511" y="-69"/>
      <point x="460" y="-69" type="curve" smooth="yes"/>
      <point x="408" y="-69"/>
      <point x="379" y="-95"/>
    </contour>
    <contour>
      <point x="27" y="232" type="curve"/>
      <point x="48" y="232" type="line"/>
      <point x="54" y="271"/>
      <point x="77" y="291"/>
      <point x="115" y="291" type="curve" smooth="yes"/>
      <point x="152" y="291"/>
      <point x="178" y="268"/>
      <point x="183" y="232" type="curve"/>
      <point x="205" y="232" type="line"/>
      <point x="199" y="282"/>
      <point x="166" y="311"/>
      <point x="115" y="311" type="curve" smooth="yes"/>
      <point x="61" y="311"/>
      <point x="32" y="285"/>
    </contour>
    <contour>
      <point x="109" y="470" type="curve"/>
      <point x="130" y="470" type="line"/>
      <point x="135" y="510"/>
      <point x="157" y="529"/>
      <point x="197" y="529" type="curve" smooth="yes"/>
      <point x="231" y="529"/>
      <point x="258" y="505"/>
      <point x="264" y="470" type="curve"/>
      <point x="287" y="470" type="line"/>
      <point x="281" y="520"/>
      <point x="248" y="549"/>
      <point x="197" y="549" type="curve" smooth="yes"/>
      <point x="143" y="549"/>
      <point x="114" y="523"/>
    </contour>
    <contour>
      <point x="638" y="-12" type="curve"/>
      <point x="659" y="-12" type="line"/>
      <point x="665" y="28"/>
      <point x="687" y="47"/>
      <point x="726" y="47" type="curve" smooth="yes"/>
      <point x="760" y="47"/>
      <point x="787" y="23"/>
      <point x="793" y="-12" type="curve"/>
      <point x="816" y="-12" type="line"/>
      <point x="810" y="39"/>
      <point x="778" y="67"/>
      <point x="726" y="67" type="curve" smooth="yes"/>
      <point x="672" y="67"/>
      <point x="643" y="41"/>
    </contour>
    <contour>
      <point x="726" y="232" type="curve"/>
      <point x="746" y="232" type="line"/>
      <point x="752" y="271"/>
      <point x="775" y="291"/>
      <point x="814" y="291" type="curve" smooth="yes"/>
      <point x="848" y="291"/>
      <point x="874" y="267"/>
      <point x="881" y="232" type="curve"/>
      <point x="903" y="232" type="line"/>
      <point x="897" y="281"/>
      <point x="864" y="311"/>
      <point x="814" y="311" type="curve" smooth="yes"/>
      <point x="760" y="311"/>
      <point x="732" y="286"/>
    </contour>
    <contour>
      <point x="372" y="609" type="curve"/>
      <point x="393" y="609" type="line"/>
      <point x="399" y="648"/>
      <point x="422" y="668"/>
      <point x="460" y="668" type="curve" smooth="yes"/>
      <point x="494" y="668"/>
      <point x="521" y="644"/>
      <point x="527" y="609" type="curve"/>
      <point x="550" y="609" type="line"/>
      <point x="543" y="660"/>
      <point x="511" y="688"/>
      <point x="460" y="688" type="curve" smooth="yes"/>
      <point x="406" y="688"/>
      <point x="378" y="663"/>
    </contour>
  </outline>
</glyph>
<glyph name="uni0489" format="2">
  <advance width="899"/>
  <unicode hex="0489"/>
  <outline>
    <contour>
      <point x="776" y="578" type="line"/>
      <point x="724" y="557"/>
      <point x="668" y="523"/>
      <point x="634" y="497" type="curve"/>
      <point x="632" y="488" type="line"/>
      <point x="652" y="468" type="line"/>
      <point x="688" y="499"/>
      <point x="742" y="536"/>
      <point x="792" y="561" type="curve"/>
    </contour>
    <contour>
      <point x="262" y="72" type="line"/>
      <point x="226" y="41"/>
      <point x="172" y="4"/>
      <point x="122" y="-21" type="curve"/>
      <point x="138" y="-38" type="line"/>
      <point x="190" y="-17"/>
      <point x="245" y="17"/>
      <point x="280" y="43" type="curve"/>
      <point x="282" y="52" type="line"/>
    </contour>
    <contour>
      <point x="26" y="317" type="curve"/>
      <point x="26" y="293" type="line"/>
      <point x="77" y="269"/>
      <point x="138" y="251"/>
      <point x="180" y="244" type="curve"/>
      <point x="187" y="249" type="line"/>
      <point x="187" y="277" type="line"/>
      <point x="142" y="282"/>
      <point x="79" y="297"/>
    </contour>
    <contour>
      <point x="478" y="-17" type="line"/>
      <point x="450" y="-17" type="line"/>
      <point x="446" y="-65"/>
      <point x="431" y="-132"/>
      <point x="413" y="-188" type="curve"/>
      <point x="437" y="-188" type="line"/>
      <point x="459" y="-134"/>
      <point x="476" y="-69"/>
      <point x="483" y="-24" type="curve"/>
    </contour>
    <contour>
      <point x="663" y="82" type="line"/>
      <point x="643" y="62" type="line"/>
      <point x="671" y="25"/>
      <point x="706" y="-33"/>
      <point x="730" y="-87" type="curve"/>
      <point x="747" y="-70" type="line"/>
      <point x="727" y="-15"/>
      <point x="696" y="44"/>
      <point x="671" y="81" type="curve"/>
    </contour>
    <contour>
      <point x="184" y="627" type="curve"/>
      <point x="167" y="610" type="line"/>
      <point x="187" y="555"/>
      <point x="218" y="496"/>
      <point x="243" y="459" type="curve"/>
      <point x="251" y="458" type="line"/>
      <point x="271" y="478" type="line"/>
      <point x="243" y="515"/>
      <point x="208" y="573"/>
    </contour>
    <contour>
      <point x="734" y="297" type="curve"/>
      <point x="727" y="292" type="line"/>
      <point x="727" y="264" type="line"/>
      <point x="772" y="259"/>
      <point x="835" y="244"/>
      <point x="888" y="224" type="curve"/>
      <point x="888" y="248" type="line"/>
      <point x="837" y="272"/>
      <point x="776" y="290"/>
    </contour>
    <contour>
      <point x="501" y="728" type="curve"/>
      <point x="477" y="728" type="line"/>
      <point x="455" y="674"/>
      <point x="438" y="609"/>
      <point x="431" y="564" type="curve"/>
      <point x="436" y="557" type="line"/>
      <point x="464" y="557" type="line"/>
      <point x="468" y="605"/>
      <point x="483" y="672"/>
    </contour>
  </outline>
</glyph>
<glyph name="uni0492" format="2">
  <advance width="457"/>
  <unicode hex="0492"/>
  <anchor x="229" y="0" name="bottom"/>
  <anchor x="229" y="714" name="top"/>
  <outline>
    <contour>
      <point x="460" y="714" type="line"/>
      <point x="96" y="714" type="line"/>
      <point x="96" y="368" type="line"/>
      <point x="17" y="368" type="line"/>
      <point x="17" y="343" type="line"/>
      <point x="96" y="343" type="line"/>
      <point x="96" y="0" type="line"/>
      <point x="124" y="0" type="line"/>
      <point x="124" y="343" type="line"/>
      <point x="330" y="343" type="line"/>
      <point x="330" y="368" type="line"/>
      <point x="124" y="368" type="line"/>
      <point x="124" y="689" type="line"/>
      <point x="460" y="689" type="line"/>
    </contour>
  </outline>
</glyph>
<glyph name="uni049A" format="2">
  <advance width="564"/>
  <unicode hex="049A"/>
  <anchor x="282" y="-175" name="bottom"/>
  <anchor x="282" y="714" name="top"/>
  <outline>
    <contour>
      <point x="501" y="714" type="line"/>
      <point x="461" y="714" type="line"/>
      <point x="124" y="368" type="line"/>
      <point x="124" y="714" type="line"/>
      <point x="97" y="714" type="line"/>
      <point x="97" y="0" type="line"/>
      <point x="124" y="0" type="line"/>
      <point x="124" y="365" type="line"/>
      <point x="471" y="0" type="line"/>
      <point x="512" y="0" type="line"/>
      <point x="512" y="-175" type="line"/>
      <point x="538" y="-175" type="line"/>
      <point x="538" y="25" type="line"/>
      <point x="484" y="25" type="line"/>
      <point x="160" y="367" type="line"/>
    </contour>
  </outline>
</glyph>
<glyph name="uni04A4" format="2">
  <advance width="719"/>
  <unicode hex="04A4"/>
  <anchor x="333" y="0" name="bottom"/>
  <anchor x="333" y="714" name="top"/>
  <outline>
    <contour>
      <point x="97" y="0" type="line"/>
      <point x="124" y="0" type="line"/>
      <point x="124" y="363" type="line"/>
      <point x="542" y="363" type="line"/>
      <point x="542" y="0" type="line"/>
      <point x="569" y="0" type="line"/>
      <point x="569" y="689" type="line"/>
      <point x="716" y="689" type="line"/>
      <point x="716" y="714" type="line"/>
      <point x="542" y="714" type="line"/>
      <point x="542" y="388" type="line"/>
      <point x="124" y="388" type="line"/>
      <point x="124" y="714" type="line"/>
      <point x="97" y="714" type="line"/>
    </contour>
  </outline>
</glyph>
<glyph name="uni04F7" format="2">
  <advance width="390"/>
  <unicode hex="04F7"/>
  <anchor x="195" y="-176" name="bottom"/>
  <anchor x="195" y="528" name="top"/>
  <outline>
    <contour>
      <point x="371" y="528" type="line"/>
      <point x="85" y="528" type="line"/>
      <point x="85" y="0" type="line"/>
      <point x="149" y="0" type="line"/>
      <point x="149" y="-176" type="line"/>
      <point x="176" y="-176" type="line"/>
      <point x="176" y="25" type="line"/>
      <point x="112" y="25" type="line"/>
      <point x="112" y="503" type="line"/>
      <point x="371" y="503" type="line"/>
    </contour>
  </outline>
</glyph>
<glyph name="uni052B" format="2">
  <advance width="966"/>
  <unicode hex="052B"/>
  <anchor x="498" y="-176" name="bottom"/>
  <anchor x="498" y="528" name="top"/>
  <outline>
    <contour>
      <point x="402" y="291" type="line"/>
      <point x="402" y="266" type="line"/>
      <point x="684" y="266" type="line"/>
      <point x="684" y="291" type="line"/>
    </contour>
    <component base="afii10069"/>
    <component base="afii10076" xOffset="582"/>
  </outline>
</glyph>
<glyph name="uni052F" format="2">
  <advance width="517"/>
  <unicode hex="052F"/>
  <anchor x="251" y="-176" name="bottom"/>
  <anchor x="251" y="528" name="top"/>
  <outline>
    <contour>
      <point x="411" y="0" type="line"/>
      <point x="465" y="0" type="line"/>
      <point x="465" y="-176" type="line"/>
      <point x="491" y="-176" type="line"/>
      <point x="491" y="25" type="line"/>
      <point x="411" y="25" type="line"/>
    </contour>
    <component base="afii10077"/>
  </outline>
</glyph>
<glyph name="uni1ABA" format="2">
  <unicode hex="1ABA"/>
  <anchor x="0" y="90" name="_bottom"/>
  <anchor x="0" y="-225" name="bottom"/>
  <outline>
    <contour>
      <point x="38" y="40" type="line"/>
      <point x="-65" y="-196" type="line"/>
      <point x="-46" y="-219" type="line"/>
      <point x="68" y="40" type="line"/>
    </contour>
    <contour>
      <point x="-68" y="-182" type="curve"/>
      <point x="-68" y="-211"/>
      <point x="-60" y="-225"/>
      <point x="-43" y="-225" type="curve" smooth="yes"/>
      <point x="-28" y="-225"/>
      <point x="-17" y="-208"/>
      <point x="-17" y="-182" type="curve" smooth="yes"/>
      <point x="-17" y="-156"/>
      <point x="-28" y="-140"/>
      <point x="-43" y="-140" type="curve" smooth="yes"/>
      <point x="-60" y="-140"/>
      <point x="-68" y="-155"/>
    </contour>
  </outline>
</glyph>
<glyph name="uni1D03" format="2">
  <advance width="527"/>
  <unicode hex="1D03"/>
  <anchor x="212" y="0" name="bottom"/>
  <anchor x="212" y="528" name="top"/>
  <outline>
    <contour>
      <point x="9" y="267" type="line"/>
      <point x="511" y="267" type="line"/>
      <point x="511" y="292" type="line"/>
      <point x="9" y="292" type="line"/>
    </contour>
    <component base="uni0299"/>
  </outline>
</glyph>
<glyph name="uni1D24" format="2">
  <advance width="356"/>
  <unicode hex="1D24"/>
  <anchor x="186" y="0" name="bottom"/>
  <anchor x="185" y="528" name="top"/>
  <outline>
    <contour>
      <point x="191" y="-10" type="curve" smooth="yes"/>
      <point x="256" y="-10"/>
      <point x="304" y="5"/>
      <point x="331" y="17" type="curve"/>
      <point x="331" y="43" type="line"/>
      <point x="290" y="25"/>
      <point x="246" y="15"/>
      <point x="191" y="15" type="curve" smooth="yes"/>
      <point x="103" y="15"/>
      <point x="56" y="54"/>
      <point x="56" y="128" type="curve" smooth="yes"/>
      <point x="56" y="204"/>
      <point x="117" y="227"/>
      <point x="193" y="251" type="curve"/>
      <point x="193" y="273" type="line"/>
      <point x="257" y="297"/>
      <point x="321" y="327"/>
      <point x="321" y="413" type="curve" smooth="yes"/>
      <point x="321" y="495"/>
      <point x="259" y="538"/>
      <point x="172" y="538" type="curve" smooth="yes"/>
      <point x="120" y="538"/>
      <point x="72" y="523"/>
      <point x="37" y="508" type="curve"/>
      <point x="48" y="483" type="line"/>
      <point x="78" y="499"/>
      <point x="129" y="513"/>
      <point x="171" y="513" type="curve" smooth="yes"/>
      <point x="242" y="513"/>
      <point x="293" y="484"/>
      <point x="293" y="413" type="curve" smooth="yes"/>
      <point x="293" y="335"/>
      <point x="233" y="313"/>
      <point x="166" y="290" type="curve"/>
      <point x="166" y="269" type="line"/>
      <point x="97" y="248"/>
      <point x="28" y="219"/>
      <point x="28" y="128" type="curve" smooth="yes"/>
      <point x="28" y="39"/>
      <point x="91" y="-10"/>
    </contour>
  </outline>
</glyph>
<glyph name="uni1D28" format="2">
  <advance width="472"/>
  <unicode hex="1D28"/>
  <outline>
    <contour>
      <point x="409" y="0" type="line"/>
      <point x="409" y="528" type="line"/>
      <point x="64" y="528" type="line"/>
      <point x="64" y="0" type="line"/>
      <point x="91" y="0" type="line"/>
      <point x="91" y="503" type="line"/>
      <point x="382" y="503" type="line"/>
      <point x="382" y="0" type="line"/>
    </contour>
  </outline>
</glyph>
<glyph name="uni1D2F" format="2">
  <advance width="376"/>
  <unicode hex="1D2F"/>
  <anchor x="187.85" y="287.0" name="bottom"/>
  <anchor x="188.5" y="715.4" name="top"/>
  <anchor x="363.35" y="715.4" name="topright"/>
  <outline>
    <contour>
      <point x="4" y="505" type="line"/>
      <point x="376" y="505" type="line"/>
      <point x="376" y="520" type="line"/>
      <point x="4" y="520" type="line"/>
    </contour>
    <component base="B" xScale="0.65" yScale="0.6" yOffset="287"/>
  </outline>
</glyph>
<glyph name="uni1D70" format="2">
  <advance width="540"/>
  <unicode hex="1D70"/>
  <anchor x="270" y="0" name="bottom"/>
  <anchor x="270" y="528" name="top"/>
  <anchor x="520" y="528" name="topright"/>
  <outline>
    <contour>
      <point x="564" y="324" type="curve"/>
      <point x="540" y="324" type="line"/>
      <point x="536" y="269"/>
      <point x="502" y="228"/>
      <point x="429" y="228" type="curve" smooth="yes"/>
      <point x="319" y="228"/>
      <point x="235" y="320"/>
      <point x="114" y="320" type="curve" smooth="yes"/>
      <point x="30" y="320"/>
      <point x="-29" y="284"/>
      <point x="-32" y="200" type="curve"/>
      <point x="-8" y="200" type="line"/>
      <point x="-4" y="268"/>
      <point x="36" y="296"/>
      <point x="110" y="296" type="curve" smooth="yes"/>
      <point x="228" y="296"/>
      <point x="316" y="204"/>
      <point x="424" y="204" type="curve" smooth="yes"/>
      <point x="499" y="204"/>
      <point x="558" y="240"/>
    </contour>
    <component base="n"/>
  </outline>
</glyph>
<glyph name="uni1D7A" format="2">
  <advance width="893"/>
  <unicode hex="1D7A"/>
  <anchor x="181" y="0" name="bottom_1"/>
  <anchor x="589" y="0" name="bottom_2"/>
  <anchor x="152" y="264" name="center_1"/>
  <anchor x="593" y="264" name="center_2"/>
  <anchor x="105" y="659" name="top_1"/>
  <anchor x="417" y="760" name="top_2"/>
  <anchor x="233" y="830" name="topright_1"/>
  <anchor x="838" y="760" name="topright_2"/>
  <outline>
    <contour>
      <point x="36" y="-75" type="line"/>
      <point x="68" y="-75" type="line"/>
      <point x="732" y="760" type="line"/>
      <point x="700" y="760" type="line"/>
    </contour>
    <component base="t"/>
    <component base="h" xOffset="319"/>
  </outline>
</glyph>
<glyph name="uni1D7B" format="2">
  <advance width="278"/>
  <unicode hex="1D7B"/>
  <anchor x="139" y="0" name="bottom"/>
  <anchor x="139" y="528" name="top"/>
  <outline>
    <contour>
      <point x="237" y="286" type="line"/>
      <point x="41" y="286" type="line"/>
      <point x="41" y="261" type="line"/>
      <point x="237" y="261" type="line"/>
    </contour>
    <component base="uni026A"/>
  </outline>
</glyph>
<glyph name="uni1D7D" format="2">
  <advance width="583"/>
  <unicode hex="1D7D"/>
  <anchor x="99" y="-232" name="bottom"/>
  <anchor x="276" y="528" name="top"/>
  <anchor x="530" y="528" name="topright"/>
  <outline>
    <contour>
      <point x="587" y="277" type="line"/>
      <point x="5" y="277" type="line"/>
      <point x="5" y="252" type="line"/>
      <point x="587" y="252" type="line"/>
    </contour>
    <component base="p"/>
  </outline>
</glyph>
<glyph name="uni1D81" format="2">
  <advance width="583"/>
  <unicode hex="1D81"/>
  <anchor x="274" y="0" name="bottom"/>
  <anchor x="275" y="264" name="center"/>
  <anchor x="273" y="760" name="top"/>
  <anchor x="528" y="760" name="topright"/>
  <outline>
    <contour>
      <point x="418" y="-169" type="curve" smooth="yes"/>
      <point x="464" y="-169"/>
      <point x="489" y="-139"/>
      <point x="489" y="-84" type="curve" smooth="yes"/>
      <point x="489" y="25" type="line"/>
      <point x="464" y="25" type="line"/>
      <point x="463" y="0" type="line"/>
      <point x="463" y="-81" type="line" smooth="yes"/>
      <point x="463" y="-125"/>
      <point x="449" y="-144"/>
      <point x="418" y="-144" type="curve" smooth="yes"/>
      <point x="403" y="-144"/>
      <point x="387" y="-140"/>
      <point x="376" y="-135" type="curve"/>
      <point x="376" y="-160" type="line"/>
      <point x="385" y="-165"/>
      <point x="401" y="-169"/>
    </contour>
    <component base="d"/>
  </outline>
</glyph>
<glyph name="uni1D82" format="2">
  <advance width="274"/>
  <unicode hex="1D82"/>
  <anchor x="120" y="0" name="bottom"/>
  <anchor x="206" y="765" name="top"/>
  <anchor x="307" y="765" name="topright"/>
  <outline>
    <contour>
      <point x="88" y="-169" type="curve" smooth="yes"/>
      <point x="134" y="-169"/>
      <point x="159" y="-139"/>
      <point x="159" y="-84" type="curve" smooth="yes"/>
      <point x="159" y="25" type="line"/>
      <point x="133" y="25" type="line"/>
      <point x="133" y="0" type="line"/>
      <point x="133" y="-81" type="line" smooth="yes"/>
      <point x="133" y="-125"/>
      <point x="119" y="-144"/>
      <point x="88" y="-144" type="curve" smooth="yes"/>
      <point x="73" y="-144"/>
      <point x="57" y="-140"/>
      <point x="46" y="-135" type="curve"/>
      <point x="46" y="-160" type="line"/>
      <point x="55" y="-165"/>
      <point x="71" y="-169"/>
    </contour>
    <component base="f"/>
  </outline>
</glyph>
<glyph name="uni1DFC" format="2">
  <unicode hex="1DFC"/>
  <outline>
    <contour>
      <point x="303" y="-217" type="line"/>
      <point x="294" y="-101"/>
      <point x="186" y="-52"/>
      <point x="0" y="-52" type="curve" smooth="yes"/>
      <point x="-197" y="-52"/>
      <point x="-292" y="-101"/>
      <point x="-302" y="-217" type="curve"/>
      <point x="-275" y="-217" type="line"/>
      <point x="-264" y="-101"/>
      <point x="-145" y="-77"/>
      <point x="1" y="-77" type="curve" smooth="yes"/>
      <point x="136" y="-77"/>
      <point x="264" y="-101"/>
      <point x="276" y="-217" type="curve"/>
    </contour>
  </outline>
</glyph>
<glyph name="longshighstroke" format="2">
  <advance width="294"/>
  <unicode hex="1E9D"/>
  <anchor x="99" y="0" name="bottom"/>
  <anchor x="195" y="765" name="top"/>
  <outline>
    <contour>
      <point x="13" y="528" type="line"/>
      <point x="13" y="503" type="line"/>
      <point x="271" y="503" type="line"/>
      <point x="271" y="528" type="line"/>
    </contour>
    <component base="longs"/>
  </outline>
</glyph>
<glyph name="ll-middleWelsh" format="2">
  <advance width="414"/>
  <unicode hex="1EFB"/>
  <anchor x="207" y="0" name="bottom"/>
  <anchor x="207" y="760" name="top"/>
  <anchor x="99" y="264" name="center_1"/>
  <anchor x="306" y="264" name="center_2"/>
  <anchor x="176" y="760" name="topright_1"/>
  <anchor x="383" y="760" name="topright_2"/>
  <outline>
    <contour>
      <point x="4" y="627" type="line"/>
      <point x="410" y="627" type="line"/>
      <point x="410" y="652" type="line"/>
      <point x="4" y="652" type="line"/>
    </contour>
    <component base="l"/>
    <component base="l" xOffset="207"/>
  </outline>
</glyph>
<glyph name="uni1FBD" format="2">
  <advance width="234"/>
  <unicode hex="1FBD"/>
  <anchor x="127" y="527" name="_top"/>
  <outline>
    <contour>
      <point x="92" y="599" type="curve"/>
      <point x="92" y="577" type="line"/>
      <point x="129" y="588"/>
      <point x="163" y="617"/>
      <point x="163" y="669" type="curve" smooth="yes"/>
      <point x="163" y="708"/>
      <point x="147" y="721"/>
      <point x="128" y="721" type="curve" smooth="yes"/>
      <point x="109" y="721"/>
      <point x="98" y="706"/>
      <point x="98" y="688" type="curve" smooth="yes"/>
      <point x="98" y="667"/>
      <point x="114" y="651"/>
      <point x="138" y="651" type="curve"/>
      <point x="138" y="628"/>
      <point x="115" y="606"/>
    </contour>
  </outline>
</glyph>
<glyph name="uni1FBE" format="2">
  <advance width="576"/>
  <unicode hex="1FBE"/>
  <outline>
    <contour>
      <point x="262" y="-62" type="line"/>
      <point x="236" y="-62" type="line"/>
      <point x="236" y="-160" type="line" smooth="yes"/>
      <point x="236" y="-201"/>
      <point x="257" y="-220"/>
      <point x="290" y="-220" type="curve" smooth="yes"/>
      <point x="306" y="-220"/>
      <point x="319" y="-216"/>
      <point x="329" y="-212" type="curve"/>
      <point x="329" y="-189" type="line"/>
      <point x="321" y="-192"/>
      <point x="306" y="-196"/>
      <point x="294" y="-196" type="curve" smooth="yes"/>
      <point x="273" y="-196"/>
      <point x="262" y="-184"/>
      <point x="262" y="-155" type="curve" smooth="yes"/>
    </contour>
  </outline>
</glyph>
<glyph name="uni1FC1" format="2">
  <advance width="574"/>
  <unicode hex="1FC1"/>
  <anchor x="279" y="528" name="_top"/>
  <outline>
    <contour>
      <point x="111" y="761" type="curve"/>
      <point x="135" y="761" type="line"/>
      <point x="138" y="815"/>
      <point x="155" y="850"/>
      <point x="201" y="850" type="curve" smooth="yes"/>
      <point x="260" y="850"/>
      <point x="285" y="763"/>
      <point x="360" y="763" type="curve" smooth="yes"/>
      <point x="419" y="763"/>
      <point x="444" y="807"/>
      <point x="447" y="876" type="curve"/>
      <point x="423" y="876" type="line"/>
      <point x="419" y="818"/>
      <point x="404" y="787"/>
      <point x="360" y="787" type="curve" smooth="yes"/>
      <point x="297" y="787"/>
      <point x="276" y="874"/>
      <point x="201" y="874" type="curve" smooth="yes"/>
      <point x="142" y="874"/>
      <point x="116" y="831"/>
    </contour>
    <contour>
      <point x="208" y="640" type="curve" smooth="yes"/>
      <point x="228" y="640"/>
      <point x="232" y="654"/>
      <point x="232" y="671" type="curve" smooth="yes"/>
      <point x="232" y="687"/>
      <point x="228" y="702"/>
      <point x="208" y="702" type="curve" smooth="yes"/>
      <point x="190" y="702"/>
      <point x="185" y="687"/>
      <point x="185" y="671" type="curve" smooth="yes"/>
      <point x="185" y="654"/>
      <point x="190" y="640"/>
    </contour>
    <contour>
      <point x="362" y="640" type="curve" smooth="yes"/>
      <point x="382" y="640"/>
      <point x="386" y="654"/>
      <point x="386" y="671" type="curve" smooth="yes"/>
      <point x="386" y="687"/>
      <point x="382" y="702"/>
      <point x="362" y="702" type="curve" smooth="yes"/>
      <point x="344" y="702"/>
      <point x="339" y="687"/>
      <point x="339" y="671" type="curve" smooth="yes"/>
      <point x="339" y="654"/>
      <point x="344" y="640"/>
    </contour>
  </outline>
</glyph>
<glyph name="uni1FCD" format="2">
  <advance width="575"/>
  <unicode hex="1FCD"/>
  <outline>
    <contour>
      <point x="382" y="635" type="curve"/>
      <point x="397" y="635" type="line"/>
      <point x="397" y="647" type="line"/>
      <point x="381" y="677"/>
      <point x="361" y="730"/>
      <point x="354" y="764" type="curve"/>
      <point x="320" y="764" type="line"/>
      <point x="320" y="754" type="line"/>
      <point x="330" y="722"/>
      <point x="354" y="676"/>
    </contour>
    <contour>
      <point x="210" y="656" type="curve"/>
      <point x="210" y="635" type="line"/>
      <point x="245" y="645"/>
      <point x="278" y="673"/>
      <point x="278" y="717" type="curve" smooth="yes"/>
      <point x="278" y="751"/>
      <point x="261" y="763"/>
      <point x="242" y="763" type="curve" smooth="yes"/>
      <point x="226" y="763"/>
      <point x="216" y="752"/>
      <point x="216" y="735" type="curve" smooth="yes"/>
      <point x="216" y="718"/>
      <point x="231" y="705"/>
      <point x="254" y="705" type="curve"/>
      <point x="253" y="683"/>
      <point x="232" y="662"/>
    </contour>
  </outline>
</glyph>
<glyph name="uni1FCE" format="2">
  <advance width="575"/>
  <unicode hex="1FCE"/>
  <anchor x="291" y="528" name="_top"/>
  <anchor x="292" y="764" name="top"/>
  <outline>
    <contour>
      <point x="305" y="635" type="line"/>
      <point x="321" y="635" type="line"/>
      <point x="349" y="676"/>
      <point x="372" y="722"/>
      <point x="382" y="754" type="curve"/>
      <point x="382" y="764" type="line"/>
      <point x="349" y="764" type="line"/>
      <point x="342" y="730"/>
      <point x="322" y="677"/>
      <point x="305" y="647" type="curve"/>
    </contour>
    <contour>
      <point x="201" y="635" type="line"/>
      <point x="236" y="645"/>
      <point x="269" y="673"/>
      <point x="269" y="717" type="curve" smooth="yes"/>
      <point x="269" y="751"/>
      <point x="252" y="763"/>
      <point x="233" y="763" type="curve" smooth="yes"/>
      <point x="217" y="763"/>
      <point x="207" y="752"/>
      <point x="207" y="735" type="curve" smooth="yes"/>
      <point x="207" y="718"/>
      <point x="222" y="705"/>
      <point x="245" y="705" type="curve"/>
      <point x="244" y="683"/>
      <point x="223" y="662"/>
      <point x="201" y="656" type="curve"/>
    </contour>
  </outline>
</glyph>
<glyph name="uni1FCF" format="2">
  <advance width="568"/>
  <unicode hex="1FCF"/>
  <anchor x="279" y="528" name="_top"/>
  <anchor x="279" y="876" name="top"/>
  <outline>
    <contour>
      <point x="111" y="761" type="curve"/>
      <point x="135" y="761" type="line"/>
      <point x="138" y="815"/>
      <point x="155" y="850"/>
      <point x="201" y="850" type="curve" smooth="yes"/>
      <point x="260" y="850"/>
      <point x="285" y="763"/>
      <point x="360" y="763" type="curve" smooth="yes"/>
      <point x="419" y="763"/>
      <point x="444" y="807"/>
      <point x="447" y="876" type="curve"/>
      <point x="423" y="876" type="line"/>
      <point x="419" y="818"/>
      <point x="404" y="787"/>
      <point x="360" y="787" type="curve" smooth="yes"/>
      <point x="297" y="787"/>
      <point x="276" y="874"/>
      <point x="201" y="874" type="curve" smooth="yes"/>
      <point x="142" y="874"/>
      <point x="116" y="831"/>
    </contour>
    <contour>
      <point x="241" y="591" type="line"/>
      <point x="276" y="601"/>
      <point x="308" y="629"/>
      <point x="308" y="673" type="curve" smooth="yes"/>
      <point x="308" y="707"/>
      <point x="291" y="719"/>
      <point x="273" y="719" type="curve" smooth="yes"/>
      <point x="256" y="719"/>
      <point x="246" y="708"/>
      <point x="246" y="691" type="curve" smooth="yes"/>
      <point x="246" y="674"/>
      <point x="262" y="661"/>
      <point x="285" y="661" type="curve"/>
      <point x="284" y="639"/>
      <point x="262" y="618"/>
      <point x="241" y="612" type="curve"/>
    </contour>
  </outline>
</glyph>
<glyph name="uni1FDD" format="2">
  <advance width="576"/>
  <unicode hex="1FDD"/>
  <outline>
    <contour>
      <point x="391" y="635" type="curve"/>
      <point x="406" y="635" type="line"/>
      <point x="406" y="647" type="line"/>
      <point x="389" y="677"/>
      <point x="370" y="730"/>
      <point x="363" y="764" type="curve"/>
      <point x="329" y="764" type="line"/>
      <point x="329" y="754" type="line"/>
      <point x="339" y="722"/>
      <point x="362" y="676"/>
    </contour>
    <contour>
      <point x="287" y="635" type="curve"/>
      <point x="287" y="656" type="line"/>
      <point x="265" y="662"/>
      <point x="244" y="683"/>
      <point x="243" y="705" type="curve"/>
      <point x="266" y="705"/>
      <point x="281" y="718"/>
      <point x="281" y="735" type="curve" smooth="yes"/>
      <point x="281" y="752"/>
      <point x="271" y="763"/>
      <point x="254" y="763" type="curve" smooth="yes"/>
      <point x="236" y="763"/>
      <point x="219" y="751"/>
      <point x="219" y="717" type="curve" smooth="yes"/>
      <point x="219" y="673"/>
      <point x="252" y="645"/>
    </contour>
  </outline>
</glyph>
<glyph name="uni1FDE" format="2">
  <advance width="576"/>
  <unicode hex="1FDE"/>
  <anchor x="290" y="528" name="_top"/>
  <anchor x="291" y="764" name="top"/>
  <outline>
    <contour>
      <point x="306" y="635" type="line"/>
      <point x="321" y="635" type="line"/>
      <point x="350" y="676"/>
      <point x="373" y="722"/>
      <point x="383" y="754" type="curve"/>
      <point x="383" y="764" type="line"/>
      <point x="349" y="764" type="line"/>
      <point x="342" y="730"/>
      <point x="323" y="677"/>
      <point x="306" y="647" type="curve"/>
    </contour>
    <contour>
      <point x="267" y="635" type="curve"/>
      <point x="267" y="656" type="line"/>
      <point x="245" y="662"/>
      <point x="224" y="683"/>
      <point x="223" y="705" type="curve"/>
      <point x="246" y="705"/>
      <point x="261" y="718"/>
      <point x="261" y="735" type="curve" smooth="yes"/>
      <point x="261" y="752"/>
      <point x="251" y="763"/>
      <point x="234" y="763" type="curve" smooth="yes"/>
      <point x="216" y="763"/>
      <point x="199" y="751"/>
      <point x="199" y="717" type="curve" smooth="yes"/>
      <point x="199" y="673"/>
      <point x="232" y="645"/>
    </contour>
  </outline>
</glyph>
<glyph name="uni1FDF" format="2">
  <advance width="568"/>
  <unicode hex="1FDF"/>
  <anchor x="279" y="528" name="_top"/>
  <anchor x="279" y="876" name="top"/>
  <outline>
    <contour>
      <point x="111" y="761" type="curve"/>
      <point x="135" y="761" type="line"/>
      <point x="138" y="815"/>
      <point x="155" y="850"/>
      <point x="201" y="850" type="curve" smooth="yes"/>
      <point x="260" y="850"/>
      <point x="285" y="763"/>
      <point x="360" y="763" type="curve" smooth="yes"/>
      <point x="419" y="763"/>
      <point x="444" y="807"/>
      <point x="447" y="876" type="curve"/>
      <point x="423" y="876" type="line"/>
      <point x="419" y="818"/>
      <point x="404" y="787"/>
      <point x="360" y="787" type="curve" smooth="yes"/>
      <point x="297" y="787"/>
      <point x="276" y="874"/>
      <point x="201" y="874" type="curve" smooth="yes"/>
      <point x="142" y="874"/>
      <point x="116" y="831"/>
    </contour>
    <contour>
      <point x="308" y="591" type="curve"/>
      <point x="308" y="612" type="line"/>
      <point x="287" y="618"/>
      <point x="266" y="639"/>
      <point x="265" y="661" type="curve"/>
      <point x="287" y="661"/>
      <point x="303" y="674"/>
      <point x="303" y="691" type="curve" smooth="yes"/>
      <point x="303" y="708"/>
      <point x="293" y="719"/>
      <point x="276" y="719" type="curve" smooth="yes"/>
      <point x="258" y="719"/>
      <point x="241" y="707"/>
      <point x="241" y="673" type="curve" smooth="yes"/>
      <point x="241" y="629"/>
      <point x="274" y="601"/>
    </contour>
  </outline>
</glyph>
<glyph name="uni1FED" format="2">
  <advance width="575"/>
  <unicode hex="1FED"/>
  <anchor x="285" y="528" name="_top"/>
  <outline>
    <contour>
      <point x="316" y="616" type="line"/>
      <point x="316" y="628" type="line"/>
      <point x="296" y="667"/>
      <point x="271" y="727"/>
      <point x="260" y="773" type="curve"/>
      <point x="223" y="773" type="line"/>
      <point x="223" y="763" type="line"/>
      <point x="238" y="723"/>
      <point x="268" y="663"/>
      <point x="299" y="616" type="curve"/>
    </contour>
    <contour>
      <point x="143" y="662" type="curve" smooth="yes"/>
      <point x="143" y="645"/>
      <point x="148" y="631"/>
      <point x="166" y="631" type="curve" smooth="yes"/>
      <point x="186" y="631"/>
      <point x="190" y="645"/>
      <point x="190" y="662" type="curve" smooth="yes"/>
      <point x="190" y="678"/>
      <point x="186" y="693"/>
      <point x="166" y="693" type="curve" smooth="yes"/>
      <point x="148" y="693"/>
      <point x="143" y="678"/>
    </contour>
    <contour>
      <point x="378" y="662" type="curve" smooth="yes"/>
      <point x="378" y="645"/>
      <point x="384" y="631"/>
      <point x="401" y="631" type="curve" smooth="yes"/>
      <point x="422" y="631"/>
      <point x="425" y="645"/>
      <point x="425" y="662" type="curve" smooth="yes"/>
      <point x="425" y="678"/>
      <point x="422" y="693"/>
      <point x="401" y="693" type="curve" smooth="yes"/>
      <point x="384" y="693"/>
      <point x="378" y="678"/>
    </contour>
  </outline>
</glyph>
<glyph name="uni1FEE" format="2">
  <advance width="575"/>
  <unicode hex="1FEE"/>
  <outline>
    <contour>
      <point x="248" y="628" type="curve"/>
      <point x="248" y="616" type="line"/>
      <point x="265" y="616" type="line"/>
      <point x="296" y="663"/>
      <point x="326" y="723"/>
      <point x="341" y="763" type="curve"/>
      <point x="341" y="773" type="line"/>
      <point x="304" y="773" type="line"/>
      <point x="293" y="727"/>
      <point x="268" y="667"/>
    </contour>
    <contour>
      <point x="166" y="631" type="curve" smooth="yes"/>
      <point x="186" y="631"/>
      <point x="190" y="645"/>
      <point x="190" y="662" type="curve" smooth="yes"/>
      <point x="190" y="678"/>
      <point x="186" y="693"/>
      <point x="166" y="693" type="curve" smooth="yes"/>
      <point x="148" y="693"/>
      <point x="143" y="678"/>
      <point x="143" y="662" type="curve" smooth="yes"/>
      <point x="143" y="645"/>
      <point x="148" y="631"/>
    </contour>
    <contour>
      <point x="401" y="631" type="curve" smooth="yes"/>
      <point x="422" y="631"/>
      <point x="425" y="645"/>
      <point x="425" y="662" type="curve" smooth="yes"/>
      <point x="425" y="678"/>
      <point x="422" y="693"/>
      <point x="401" y="693" type="curve" smooth="yes"/>
      <point x="384" y="693"/>
      <point x="378" y="678"/>
      <point x="378" y="662" type="curve" smooth="yes"/>
      <point x="378" y="645"/>
      <point x="384" y="631"/>
    </contour>
  </outline>
</glyph>
<glyph name="uni1FEF" format="2">
  <advance width="575"/>
  <unicode hex="1FEF"/>
  <anchor x="250" y="528" name="_top"/>
  <anchor x="249" y="763" name="top"/>
  <outline>
    <contour>
      <point x="295" y="606" type="line"/>
      <point x="295" y="618" type="line"/>
      <point x="275" y="657"/>
      <point x="250" y="717"/>
      <point x="238" y="763" type="curve"/>
      <point x="202" y="763" type="line"/>
      <point x="202" y="753" type="line"/>
      <point x="216" y="713"/>
      <point x="247" y="653"/>
      <point x="278" y="606" type="curve"/>
    </contour>
  </outline>
</glyph>
<glyph name="uni1FFD" format="2">
  <advance width="575"/>
  <unicode hex="1FFD"/>
  <anchor x="281" y="528" name="_top"/>
  <anchor x="283" y="763" name="top"/>
  <outline>
    <contour>
      <point x="236" y="606" type="line"/>
      <point x="253" y="606" type="line"/>
      <point x="284" y="653"/>
      <point x="315" y="713"/>
      <point x="329" y="753" type="curve"/>
      <point x="329" y="763" type="line"/>
      <point x="293" y="763" type="line"/>
      <point x="281" y="717"/>
      <point x="256" y="657"/>
      <point x="236" y="618" type="curve"/>
    </contour>
  </outline>
</glyph>
<glyph name="uni1FFE" format="2">
  <advance width="254"/>
  <unicode hex="1FFE"/>
  <anchor x="126" y="528" name="_top"/>
  <anchor x="126" y="759" name="top"/>
  <outline>
    <contour>
      <point x="161" y="615" type="curve"/>
      <point x="161" y="637" type="line"/>
      <point x="139" y="644"/>
      <point x="116" y="666"/>
      <point x="115" y="689" type="curve"/>
      <point x="139" y="689"/>
      <point x="155" y="705"/>
      <point x="155" y="726" type="curve" smooth="yes"/>
      <point x="155" y="744"/>
      <point x="145" y="759"/>
      <point x="125" y="759" type="curve" smooth="yes"/>
      <point x="106" y="759"/>
      <point x="90" y="746"/>
      <point x="90" y="707" type="curve" smooth="yes"/>
      <point x="90" y="655"/>
      <point x="125" y="626"/>
    </contour>
  </outline>
</glyph>
<glyph name="caret" format="2">
  <advance width="375"/>
  <unicode hex="2038"/>
  <outline>
    <contour>
      <point x="19" y="-240" type="line"/>
      <point x="48" y="-240" type="line"/>
      <point x="188" y="47" type="line"/>
      <point x="320" y="-240" type="line"/>
      <point x="349" y="-240" type="line"/>
      <point x="201" y="80" type="line"/>
      <point x="178" y="80" type="line"/>
    </contour>
  </outline>
</glyph>
<glyph name="tironiansignet" format="2">
  <advance width="530"/>
  <unicode hex="204A"/>
  <outline>
    <contour>
      <point x="470" y="0" type="line"/>
      <point x="470" y="527" type="line"/>
      <point x="28" y="527" type="line"/>
      <point x="28" y="504" type="line"/>
      <point x="446" y="504" type="line"/>
      <point x="446" y="0" type="line"/>
    </contour>
  </outline>
</glyph>
<glyph name="equalsuperior" format="2">
  <advance width="291"/>
  <unicode hex="207C"/>
  <outline>
    <contour>
      <point x="28" y="495" type="line"/>
      <point x="266" y="495" type="line"/>
      <point x="266" y="520" type="line"/>
      <point x="28" y="520" type="line"/>
    </contour>
    <contour>
      <point x="28" y="401" type="line"/>
      <point x="266" y="401" type="line"/>
      <point x="266" y="426" type="line" smooth="yes"/>
      <point x="28" y="426" type="line"/>
    </contour>
  </outline>
</glyph>
<glyph name="parenleftsuperior" format="2">
  <advance width="197"/>
  <unicode hex="207D"/>
  <outline>
    <contour>
      <point x="38" y="501" type="curve" smooth="yes"/>
      <point x="38" y="379"/>
      <point x="74" y="303"/>
      <point x="127" y="241" type="curve"/>
      <point x="161" y="241" type="line"/>
      <point x="99" y="309"/>
      <point x="65" y="385"/>
      <point x="65" y="501" type="curve" smooth="yes"/>
      <point x="65" y="614"/>
      <point x="103" y="691"/>
      <point x="162" y="756" type="curve"/>
      <point x="127" y="756" type="line"/>
      <point x="73" y="692"/>
      <point x="38" y="619"/>
    </contour>
  </outline>
</glyph>
<glyph name="parenrightsuperior" format="2">
  <advance width="197"/>
  <unicode hex="207E"/>
  <outline>
    <contour>
      <point x="158" y="496" type="curve" smooth="yes"/>
      <point x="158" y="618"/>
      <point x="123" y="694"/>
      <point x="69" y="756" type="curve"/>
      <point x="35" y="756" type="line"/>
      <point x="97" y="688"/>
      <point x="131" y="612"/>
      <point x="131" y="496" type="curve" smooth="yes"/>
      <point x="131" y="383"/>
      <point x="93" y="306"/>
      <point x="34" y="241" type="curve"/>
      <point x="69" y="241" type="line"/>
      <point x="123" y="305"/>
      <point x="158" y="378"/>
    </contour>
  </outline>
</glyph>
<glyph name="uni20A5" format="2">
  <advance width="852"/>
  <unicode hex="20A5"/>
  <anchor x="406" y="0" name="bottom"/>
  <anchor x="402" y="528" name="top"/>
  <anchor x="784" y="528" name="topright"/>
  <outline>
    <contour>
      <point x="613" y="667" type="line"/>
      <point x="587" y="667" type="line"/>
      <point x="219" y="-110" type="line"/>
      <point x="245" y="-110" type="line"/>
    </contour>
    <component base="m"/>
  </outline>
</glyph>
<glyph name="uni20A9" format="2">
  <advance width="563"/>
  <unicode hex="20A9"/>
  <outline>
    <contour>
      <point x="124" y="0" type="line"/>
      <point x="155" y="0" type="line"/>
      <point x="206" y="270" type="line"/>
      <point x="349" y="270" type="line"/>
      <point x="396" y="0" type="line"/>
      <point x="427" y="0" type="line"/>
      <point x="471" y="270" type="line"/>
      <point x="557" y="270" type="line"/>
      <point x="557" y="295" type="line"/>
      <point x="476" y="295" type="line"/>
      <point x="497" y="431" type="line"/>
      <point x="557" y="431" type="line"/>
      <point x="557" y="456" type="line"/>
      <point x="502" y="456" type="line"/>
      <point x="544" y="714" type="line"/>
      <point x="516" y="714" type="line"/>
      <point x="474" y="456" type="line"/>
      <point x="343" y="456" type="line"/>
      <point x="298" y="714" type="line"/>
      <point x="267" y="714" type="line"/>
      <point x="216" y="456" type="line"/>
      <point x="83" y="456" type="line"/>
      <point x="46" y="714" type="line"/>
      <point x="18" y="714" type="line"/>
      <point x="56" y="456" type="line"/>
      <point x="6" y="456" type="line"/>
      <point x="6" y="431" type="line"/>
      <point x="60" y="431" type="line"/>
      <point x="80" y="295" type="line"/>
      <point x="6" y="295" type="line"/>
      <point x="6" y="270" type="line"/>
      <point x="84" y="270" type="line"/>
    </contour>
    <contour>
      <point x="139" y="64" type="line"/>
      <point x="110" y="270" type="line"/>
      <point x="179" y="270" type="line"/>
    </contour>
    <contour>
      <point x="411" y="64" type="line"/>
      <point x="376" y="270" type="line"/>
      <point x="445" y="270" type="line"/>
    </contour>
    <contour>
      <point x="242" y="456" type="line"/>
      <point x="281" y="667" type="line"/>
      <point x="317" y="456" type="line"/>
    </contour>
    <contour>
      <point x="106" y="295" type="line"/>
      <point x="87" y="431" type="line"/>
      <point x="210" y="431" type="line"/>
      <point x="185" y="295" type="line"/>
    </contour>
    <contour>
      <point x="211" y="295" type="line"/>
      <point x="237" y="431" type="line"/>
      <point x="322" y="431" type="line"/>
      <point x="345" y="295" type="line"/>
    </contour>
    <contour>
      <point x="371" y="295" type="line"/>
      <point x="348" y="431" type="line"/>
      <point x="470" y="431" type="line"/>
      <point x="448" y="295" type="line"/>
    </contour>
  </outline>
</glyph>
<glyph name="response" format="2">
  <advance width="593"/>
  <unicode hex="211F"/>
  <anchor x="281" y="0" name="bottom"/>
  <anchor x="273" y="714" name="top"/>
  <anchor x="526" y="714" name="topright"/>
  <outline>
    <contour>
      <point x="405" y="782" type="line"/>
      <point x="188" y="-145" type="line"/>
      <point x="227" y="-145" type="line"/>
      <point x="452" y="805" type="line"/>
      <point x="194" y="867" type="line"/>
      <point x="185" y="834" type="line"/>
    </contour>
    <component base="R"/>
  </outline>
</glyph>
<glyph name="versicle" format="2">
  <advance width="560"/>
  <unicode hex="2123"/>
  <anchor x="266" y="0" name="bottom"/>
  <anchor x="266" y="714" name="top"/>
  <anchor x="512" y="714" name="topright"/>
  <outline>
    <contour>
      <point x="335" y="785" type="line"/>
      <point x="134" y="-145" type="line"/>
      <point x="173" y="-145" type="line"/>
      <point x="382" y="810" type="line"/>
      <point x="122" y="867" type="line"/>
      <point x="114" y="833" type="line"/>
    </contour>
    <component base="V"/>
  </outline>
</glyph>
<glyph name="uni214E" format="2">
  <advance width="359"/>
  <unicode hex="214E"/>
  <outline>
    <contour>
      <point x="32" y="0" type="line"/>
      <point x="295" y="0" type="line"/>
      <point x="295" y="528" type="line"/>
      <point x="268" y="528" type="line"/>
      <point x="268" y="283" type="line"/>
      <point x="46" y="283" type="line"/>
      <point x="46" y="258" type="line"/>
      <point x="268" y="258" type="line"/>
      <point x="268" y="25" type="line"/>
      <point x="32" y="25" type="line"/>
    </contour>
  </outline>
</glyph>
<glyph name="uni2C65" format="2">
  <advance width="513"/>
  <unicode hex="2C65"/>
  <anchor x="222" y="-208" name="bottom"/>
  <anchor x="242" y="760" name="top"/>
  <anchor x="462" y="528" name="topright"/>
  <outline>
    <contour>
      <point x="70" y="-208" type="line"/>
      <point x="478" y="760" type="line"/>
      <point x="452" y="760" type="line"/>
      <point x="44" y="-208" type="line"/>
    </contour>
    <component base="a"/>
  </outline>
</glyph>
<glyph name="uni2C66" format="2">
  <advance width="319"/>
  <unicode hex="2C66"/>
  <anchor x="181" y="-208" name="bottom"/>
  <anchor x="105" y="760" name="top"/>
  <anchor x="152" y="264" name="center"/>
  <anchor x="283" y="659" name="topright"/>
  <outline>
    <contour>
      <point x="9" y="-208" type="line"/>
      <point x="327" y="760" type="line"/>
      <point x="302" y="760" type="line"/>
      <point x="-16" y="-208" type="line"/>
    </contour>
    <component base="t"/>
  </outline>
</glyph>
<glyph name="uni2C68" format="2">
  <advance width="558"/>
  <unicode hex="2C68"/>
  <anchor x="270" y="-176" name="bottom"/>
  <anchor x="98" y="760" name="top"/>
  <anchor x="274" y="264" name="center"/>
  <anchor x="519" y="760" name="topright"/>
  <outline>
    <contour>
      <point x="456" y="25" type="line"/>
      <point x="456" y="0" type="line"/>
      <point x="510" y="0" type="line"/>
      <point x="510" y="-176" type="line"/>
      <point x="536" y="-176" type="line"/>
      <point x="536" y="25" type="line"/>
    </contour>
    <component base="h"/>
  </outline>
</glyph>
<glyph name="uni2C69" format="2">
  <advance width="566"/>
  <unicode hex="2C69"/>
  <anchor x="294" y="-175" name="bottom"/>
  <anchor x="265" y="714" name="top"/>
  <anchor x="509" y="714" name="topright"/>
  <outline>
    <contour>
      <point x="546" y="25" type="line"/>
      <point x="504" y="25" type="line"/>
      <point x="521" y="0" type="line"/>
      <point x="521" y="-175" type="line"/>
      <point x="546" y="-175" type="line"/>
    </contour>
    <component base="K"/>
  </outline>
</glyph>
<glyph name="tildedotbelow" format="2">
  <advance width="535"/>
  <unicode hex="2E1F"/>
  <outline>
    <contour>
      <point x="246" y="226" type="curve" smooth="yes"/>
      <point x="246" y="199"/>
      <point x="251" y="186"/>
      <point x="268" y="186" type="curve" smooth="yes"/>
      <point x="284" y="186"/>
      <point x="292" y="203"/>
      <point x="292" y="226" type="curve" smooth="yes"/>
      <point x="292" y="250"/>
      <point x="284" y="267"/>
      <point x="268" y="267" type="curve" smooth="yes"/>
      <point x="251" y="267"/>
      <point x="246" y="251"/>
    </contour>
    <component base="asciitilde"/>
  </outline>
</glyph>
<glyph name="uniA641" format="2">
  <advance width="427"/>
  <unicode hex="A641"/>
  <outline>
    <contour>
      <point x="50" y="-212" type="line"/>
      <point x="63" y="-200"/>
      <point x="90" y="-189"/>
      <point x="124" y="-189" type="curve" smooth="yes"/>
      <point x="169" y="-189"/>
      <point x="210" y="-200"/>
      <point x="271" y="-200" type="curve" smooth="yes"/>
      <point x="353" y="-200"/>
      <point x="399" y="-155"/>
      <point x="399" y="-87" type="curve" smooth="yes"/>
      <point x="399" y="-11"/>
      <point x="358" y="25"/>
      <point x="266" y="25" type="curve" smooth="yes"/>
      <point x="75" y="25" type="line"/>
      <point x="390" y="513" type="line"/>
      <point x="390" y="528" type="line"/>
      <point x="63" y="528" type="line"/>
      <point x="63" y="503" type="line"/>
      <point x="352" y="503" type="line"/>
      <point x="38" y="17" type="line"/>
      <point x="38" y="0" type="line"/>
      <point x="259" y="0" type="line" smooth="yes"/>
      <point x="341" y="0"/>
      <point x="371" y="-25"/>
      <point x="371" y="-88" type="curve" smooth="yes"/>
      <point x="371" y="-147"/>
      <point x="334" y="-175"/>
      <point x="268" y="-175" type="curve" smooth="yes"/>
      <point x="216" y="-175"/>
      <point x="174" y="-164"/>
      <point x="126" y="-164" type="curve" smooth="yes"/>
      <point x="86" y="-164"/>
      <point x="61" y="-176"/>
      <point x="50" y="-186" type="curve"/>
    </contour>
  </outline>
</glyph>
<glyph name="uniA643" format="2">
  <advance width="454"/>
  <unicode hex="A643"/>
  <outline>
    <contour>
      <point x="78" y="267" type="line"/>
      <point x="386" y="267" type="line"/>
      <point x="386" y="292" type="line"/>
      <point x="78" y="292" type="line"/>
    </contour>
    <component base="uniA641"/>
  </outline>
</glyph>
<glyph name="uniA65C" format="2">
  <advance width="807"/>
  <unicode hex="A65C"/>
  <outline>
    <contour>
      <point x="299" y="25" type="line"/>
      <point x="299" y="0" type="line"/>
      <point x="793" y="0" type="line"/>
      <point x="793" y="25" type="line"/>
    </contour>
    <component base="uniA656"/>
  </outline>
</glyph>
<glyph name="uniA662" format="2">
  <advance width="866"/>
  <unicode hex="A662"/>
  <anchor x="297" y="-175" name="bottom"/>
  <anchor x="297" y="714" name="top"/>
  <outline>
    <contour>
      <point x="863" y="714" type="line"/>
      <point x="477" y="714" type="line"/>
      <point x="477" y="0" type="line"/>
      <point x="503" y="0" type="line"/>
      <point x="503" y="689" type="line"/>
      <point x="863" y="689" type="line"/>
    </contour>
    <component base="afii10021"/>
  </outline>
</glyph>
<glyph name="uniA663" format="2">
  <advance width="701"/>
  <unicode hex="A663"/>
  <anchor x="249" y="-176" name="bottom"/>
  <anchor x="269" y="528" name="top"/>
  <outline>
    <contour>
      <point x="682" y="528" type="line"/>
      <point x="381" y="528" type="line"/>
      <point x="381" y="0" type="line"/>
      <point x="407" y="0" type="line"/>
      <point x="407" y="503" type="line"/>
      <point x="682" y="503" type="line"/>
    </contour>
    <component base="afii10069"/>
  </outline>
</glyph>
<glyph name="uniA665" format="2">
  <advance width="704"/>
  <unicode hex="A665"/>
  <anchor x="248" y="0" name="bottom"/>
  <anchor x="248" y="528" name="top"/>
  <outline>
    <contour>
      <point x="685" y="528" type="line"/>
      <point x="384" y="528" type="line"/>
      <point x="384" y="0" type="line"/>
      <point x="410" y="0" type="line"/>
      <point x="410" y="503" type="line"/>
      <point x="685" y="503" type="line"/>
    </contour>
    <component base="afii10077"/>
  </outline>
</glyph>
<glyph name="uniA672" format="2">
  <unicode hex="A672"/>
  <outline>
    <contour>
      <point x="-620" y="447" type="line"/>
      <point x="-331" y="447" type="line"/>
      <point x="-331" y="463" type="line"/>
      <point x="-620" y="463" type="line"/>
    </contour>
    <contour>
      <point x="-620" y="77" type="line"/>
      <point x="-331" y="77" type="line"/>
      <point x="-331" y="93" type="line"/>
      <point x="-620" y="93" type="line"/>
    </contour>
    <contour>
      <point x="-620" y="262" type="line"/>
      <point x="-331" y="262" type="line"/>
      <point x="-331" y="278" type="line"/>
      <point x="-620" y="278" type="line"/>
    </contour>
    <contour>
      <point x="174" y="-66" type="line"/>
      <point x="174" y="-355" type="line"/>
      <point x="190" y="-355" type="line"/>
      <point x="190" y="-66" type="line"/>
    </contour>
    <contour>
      <point x="-195" y="-66" type="line"/>
      <point x="-195" y="-355" type="line"/>
      <point x="-179" y="-355" type="line"/>
      <point x="-179" y="-66" type="line"/>
    </contour>
    <contour>
      <point x="-11" y="-66" type="line"/>
      <point x="-11" y="-355" type="line"/>
      <point x="5" y="-355" type="line"/>
      <point x="5" y="-66" type="line"/>
    </contour>
    <contour>
      <point x="306" y="447" type="line"/>
      <point x="595" y="447" type="line"/>
      <point x="595" y="463" type="line"/>
      <point x="306" y="463" type="line"/>
    </contour>
    <contour>
      <point x="306" y="77" type="line"/>
      <point x="595" y="77" type="line"/>
      <point x="595" y="93" type="line"/>
      <point x="306" y="93" type="line"/>
    </contour>
    <contour>
      <point x="306" y="262" type="line"/>
      <point x="595" y="262" type="line"/>
      <point x="595" y="278" type="line"/>
      <point x="306" y="278" type="line"/>
    </contour>
    <contour>
      <point x="-6" y="750" type="line"/>
      <point x="-6" y="896" type="line"/>
      <point x="-23" y="896" type="line"/>
      <point x="-23" y="750" type="line"/>
      <point x="-159" y="750" type="line"/>
      <point x="-159" y="734" type="line"/>
      <point x="-23" y="734" type="line"/>
      <point x="-23" y="589" type="line"/>
      <point x="-6" y="589" type="line"/>
      <point x="-6" y="734" type="line"/>
      <point x="130" y="734" type="line"/>
      <point x="130" y="750" type="line"/>
    </contour>
  </outline>
</glyph>
<glyph name="uniA680" format="2">
  <advance width="630"/>
  <unicode hex="A680"/>
  <anchor x="297" y="-175" name="bottom"/>
  <anchor x="297" y="714" name="top"/>
  <outline>
    <contour>
      <point x="226" y="920" type="line"/>
      <point x="226" y="687" type="line"/>
      <point x="249" y="687" type="line"/>
      <point x="249" y="920" type="line"/>
    </contour>
    <component base="afii10021"/>
  </outline>
</glyph>
<glyph name="uniA681" format="2">
  <advance width="496"/>
  <unicode hex="A681"/>
  <anchor x="251" y="-176" name="bottom"/>
  <anchor x="271" y="528" name="top"/>
  <outline>
    <contour>
      <point x="181" y="739" type="line"/>
      <point x="181" y="510" type="line"/>
      <point x="206" y="510" type="line"/>
      <point x="206" y="739" type="line"/>
    </contour>
    <component base="afii10069" xOffset="2"/>
  </outline>
</glyph>
<glyph name="uniA684" format="2">
  <advance width="973"/>
  <unicode hex="A684"/>
  <anchor x="235" y="0" name="bottom_1"/>
  <anchor x="743" y="0" name="bottom_2"/>
  <anchor x="245" y="714" name="top_1"/>
  <anchor x="744" y="714" name="top_2"/>
  <outline>
    <contour>
      <point x="312" y="385" type="line"/>
      <point x="312" y="360" type="line"/>
      <point x="581" y="360" type="line"/>
      <point x="581" y="385" type="line"/>
    </contour>
    <component base="afii10025"/>
    <component base="afii10028" xOffset="463"/>
  </outline>
</glyph>
<glyph name="uniA685" format="2">
  <advance width="754"/>
  <unicode hex="A685"/>
  <anchor x="183" y="0" name="bottom_1"/>
  <anchor x="580" y="0" name="bottom_2"/>
  <anchor x="193" y="528" name="top_1"/>
  <anchor x="580" y="528" name="top_2"/>
  <outline>
    <contour>
      <point x="249" y="294" type="line"/>
      <point x="249" y="269" type="line"/>
      <point x="475" y="269" type="line"/>
      <point x="475" y="294" type="line"/>
    </contour>
    <component base="afii10073"/>
    <component base="afii10076" xOffset="370"/>
  </outline>
</glyph>
<glyph name="uniA69A" format="2">
  <advance width="710"/>
  <unicode hex="A69A"/>
  <anchor x="377" y="0" name="bottom"/>
  <anchor x="377" y="725" name="top"/>
  <outline>
    <contour>
      <point x="344" y="715" type="line"/>
      <point x="344" y="3" type="line"/>
      <point x="370" y="3" type="line"/>
      <point x="370" y="715" type="line"/>
    </contour>
    <component base="uni04E8"/>
  </outline>
</glyph>
<glyph name="uniA69E" format="2">
  <unicode hex="A69E"/>
  <outline>
    <contour>
      <point x="13" y="764" type="line"/>
      <point x="-13" y="764" type="line"/>
      <point x="-13" y="623" type="line"/>
      <point x="-106" y="617"/>
      <point x="-160" y="553"/>
      <point x="-160" y="448" type="curve" smooth="yes"/>
      <point x="-160" y="342"/>
      <point x="-105" y="273"/>
      <point x="-13" y="270" type="curve"/>
      <point x="-13" y="126" type="line"/>
      <point x="13" y="126" type="line"/>
      <point x="13" y="270" type="line"/>
      <point x="106" y="275"/>
      <point x="161" y="342"/>
      <point x="161" y="448" type="curve" smooth="yes"/>
      <point x="161" y="552"/>
      <point x="107" y="618"/>
      <point x="13" y="623" type="curve"/>
    </contour>
    <contour>
      <point x="-13" y="598" type="curve"/>
      <point x="-13" y="295" type="line"/>
      <point x="-91" y="297"/>
      <point x="-133" y="359"/>
      <point x="-133" y="448" type="curve" smooth="yes"/>
      <point x="-133" y="537"/>
      <point x="-94" y="594"/>
    </contour>
    <contour>
      <point x="13" y="598" type="line"/>
      <point x="92" y="594"/>
      <point x="133" y="535"/>
      <point x="133" y="448" type="curve" smooth="yes"/>
      <point x="133" y="361"/>
      <point x="91" y="298"/>
      <point x="13" y="295" type="curve"/>
    </contour>
  </outline>
</glyph>
<glyph name="uniA71C" format="2">
  <advance width="436"/>
  <unicode hex="A71C"/>
  <outline>
    <contour>
      <point x="218" y="634" type="line"/>
      <point x="299" y="760" type="line"/>
      <point x="230" y="760" type="line"/>
      <point x="230" y="890" type="line"/>
      <point x="207" y="890" type="line"/>
      <point x="207" y="760" type="line"/>
      <point x="137" y="760" type="line"/>
    </contour>
  </outline>
</glyph>
<glyph name="uniA740" format="2">
  <advance width="528"/>
  <unicode hex="A740"/>
  <anchor x="294" y="0" name="bottom"/>
  <anchor x="265" y="714" name="top"/>
  <anchor x="509" y="714" name="topright"/>
  <outline>
    <contour>
      <point x="31" y="593" type="line"/>
      <point x="269" y="593" type="line"/>
      <point x="269" y="618" type="line"/>
      <point x="31" y="618" type="line"/>
    </contour>
    <component base="K"/>
  </outline>
</glyph>
<glyph name="uniA741" format="2">
  <advance width="430"/>
  <unicode hex="A741"/>
  <anchor x="227" y="0" name="bottom"/>
  <anchor x="104" y="760" name="top"/>
  <anchor x="462" y="760" name="topright"/>
  <outline>
    <contour>
      <point x="307" y="657" type="line"/>
      <point x="15" y="657" type="line"/>
      <point x="15" y="632" type="line"/>
      <point x="307" y="632" type="line"/>
    </contour>
    <component base="k"/>
  </outline>
</glyph>
<glyph name="uniA742" format="2">
  <advance width="528"/>
  <unicode hex="A742"/>
  <anchor x="279" y="0" name="bottom"/>
  <anchor x="279" y="714" name="top"/>
  <anchor x="509" y="714" name="topright"/>
  <outline>
    <contour>
      <point x="245" y="158" type="line"/>
      <point x="262" y="140" type="line"/>
      <point x="493" y="355" type="line"/>
      <point x="476" y="374" type="line"/>
    </contour>
    <component base="K"/>
  </outline>
</glyph>
<glyph name="uniA745" format="2">
  <advance width="430"/>
  <unicode hex="A745"/>
  <anchor x="227" y="0" name="bottom"/>
  <anchor x="104" y="760" name="top"/>
  <anchor x="412" y="830" name="topright"/>
  <outline>
    <contour>
      <point x="196" y="93" type="line"/>
      <point x="210" y="75" type="line"/>
      <point x="431" y="246" type="line"/>
      <point x="416" y="264" type="line"/>
    </contour>
    <component base="uniA741"/>
  </outline>
</glyph>
<glyph name="uniA746" format="2">
  <advance width="487"/>
  <unicode hex="A746"/>
  <outline>
    <contour>
      <point x="151" y="432" type="line"/>
      <point x="123" y="418" type="line"/>
      <point x="123" y="0" type="line"/>
      <point x="469" y="0" type="line"/>
      <point x="469" y="25" type="line"/>
      <point x="151" y="25" type="line"/>
    </contour>
    <contour>
      <point x="97" y="424" type="line"/>
      <point x="124" y="437" type="line"/>
      <point x="124" y="714" type="line"/>
      <point x="97" y="714" type="line"/>
    </contour>
    <contour>
      <point x="97" y="425" type="line"/>
      <point x="97" y="394" type="line"/>
      <point x="151" y="432" type="line"/>
      <point x="151" y="463" type="line"/>
    </contour>
  </outline>
</glyph>
<glyph name="uniA748" format="2">
  <advance width="477"/>
  <unicode hex="A748"/>
  <anchor x="267" y="0" name="bottom"/>
  <anchor x="239" y="357" name="center"/>
  <anchor x="111" y="714" name="top"/>
  <anchor x="416" y="714" name="topright"/>
  <outline>
    <contour>
      <point x="25" y="591" type="line"/>
      <point x="259" y="591" type="line"/>
      <point x="259" y="616" type="line"/>
      <point x="25" y="616" type="line"/>
    </contour>
    <component base="L"/>
  </outline>
</glyph>
<glyph name="uniA749" format="2">
  <advance width="196"/>
  <unicode hex="A749"/>
  <anchor x="99" y="0" name="bottom"/>
  <anchor x="99" y="264" name="center"/>
  <anchor x="99" y="760" name="top"/>
  <anchor x="176" y="760" name="topright"/>
  <outline>
    <contour>
      <point x="190" y="657" type="line"/>
      <point x="6" y="657" type="line"/>
      <point x="6" y="632" type="line"/>
      <point x="190" y="632" type="line"/>
    </contour>
    <component base="l"/>
  </outline>
</glyph>
<glyph name="uniA74B" format="2">
  <advance width="541"/>
  <unicode hex="A74B"/>
  <anchor x="262" y="0" name="bottom"/>
  <anchor x="262" y="264" name="center"/>
  <anchor x="262" y="528" name="top"/>
  <anchor x="513" y="528" name="topright"/>
  <outline>
    <contour>
      <point x="0" y="253" type="line"/>
      <point x="519" y="253" type="line"/>
      <point x="519" y="278" type="line"/>
      <point x="0" y="278" type="line"/>
    </contour>
    <component base="o" xOffset="-9"/>
  </outline>
</glyph>
<glyph name="uniA750" format="2">
  <advance width="540"/>
  <unicode hex="A750"/>
  <anchor x="271" y="0" name="bottom"/>
  <anchor x="272" y="714" name="top"/>
  <anchor x="522" y="714" name="topright"/>
  <outline>
    <contour>
      <point x="10" y="161" type="line"/>
      <point x="263" y="161" type="line"/>
      <point x="263" y="186" type="line"/>
      <point x="10" y="186" type="line"/>
    </contour>
    <component base="P"/>
  </outline>
</glyph>
<glyph name="uniA751" format="2">
  <advance width="549"/>
  <unicode hex="A751"/>
  <anchor x="99" y="-232" name="bottom"/>
  <anchor x="276" y="528" name="top"/>
  <anchor x="530" y="528" name="topright"/>
  <outline>
    <contour>
      <point x="2" y="-126" type="line"/>
      <point x="331" y="-126" type="line"/>
      <point x="331" y="-101" type="line"/>
      <point x="2" y="-101" type="line"/>
    </contour>
    <component base="p"/>
  </outline>
</glyph>
<glyph name="uniA757" format="2">
  <advance width="550"/>
  <unicode hex="A757"/>
  <anchor x="450" y="-232" name="bottom"/>
  <anchor x="276" y="528" name="top"/>
  <anchor x="529" y="528" name="topright"/>
  <outline>
    <contour>
      <point x="232" y="-126" type="line"/>
      <point x="561" y="-126" type="line"/>
      <point x="561" y="-101" type="line"/>
      <point x="232" y="-101" type="line"/>
    </contour>
    <component base="q"/>
  </outline>
</glyph>
<glyph name="uniA75C" format="2">
  <advance width="542"/>
  <unicode hex="A75C"/>
  <outline>
    <contour>
      <point x="532" y="138" type="line"/>
      <point x="532" y="163" type="line"/>
      <point x="96" y="163" type="line"/>
      <point x="96" y="165" type="line"/>
      <point x="290" y="325" type="line" smooth="yes"/>
      <point x="382" y="401"/>
      <point x="442" y="453"/>
      <point x="442" y="559" type="curve" smooth="yes"/>
      <point x="442" y="660"/>
      <point x="381" y="724"/>
      <point x="265" y="724" type="curve" smooth="yes"/>
      <point x="181" y="724"/>
      <point x="122" y="695"/>
      <point x="66" y="654" type="curve"/>
      <point x="80" y="633" type="line"/>
      <point x="131" y="669"/>
      <point x="185" y="699"/>
      <point x="262" y="699" type="curve" smooth="yes"/>
      <point x="364" y="699"/>
      <point x="414" y="642"/>
      <point x="414" y="556" type="curve" smooth="yes"/>
      <point x="414" y="465"/>
      <point x="355" y="413"/>
      <point x="267" y="340" type="curve" smooth="yes"/>
      <point x="51" y="161" type="line"/>
      <point x="51" y="138" type="line"/>
    </contour>
    <contour>
      <point x="416" y="0" type="line"/>
      <point x="416" y="312" type="line"/>
      <point x="389" y="312" type="line"/>
      <point x="389" y="0" type="line"/>
    </contour>
  </outline>
</glyph>
<glyph name="uniA75F" format="2">
  <advance width="408"/>
  <unicode hex="A75F"/>
  <anchor x="204" y="0" name="bottom"/>
  <anchor x="204" y="528" name="top"/>
  <anchor x="389" y="528" name="topright"/>
  <outline>
    <contour>
      <point x="328" y="639" type="line"/>
      <point x="63" y="-93" type="line"/>
      <point x="87" y="-93" type="line"/>
      <point x="352" y="639" type="line"/>
    </contour>
    <component base="v"/>
  </outline>
</glyph>
<glyph name="uniA765" format="2">
  <advance width="549"/>
  <unicode hex="A765"/>
  <anchor x="275" y="-232" name="bottom"/>
  <anchor x="275" y="760" name="top"/>
  <outline>
    <contour>
      <point x="332" y="656" type="line"/>
      <point x="-1" y="656" type="line"/>
      <point x="-1" y="631" type="line"/>
      <point x="332" y="631" type="line"/>
    </contour>
    <component base="thorn"/>
  </outline>
</glyph>
<glyph name="uniA768" format="2">
  <advance width="440"/>
  <unicode hex="A768"/>
  <outline>
    <contour>
      <point x="148" y="-217" type="line"/>
      <point x="148" y="-5" type="line"/>
      <point x="438" y="714" type="line"/>
      <point x="408" y="714" type="line"/>
      <point x="184" y="147" type="line" smooth="yes"/>
      <point x="170" y="111"/>
      <point x="156" y="76"/>
      <point x="148" y="53" type="curve"/>
      <point x="145" y="53" type="line"/>
      <point x="147" y="77"/>
      <point x="148" y="111"/>
      <point x="148" y="148" type="curve" smooth="yes"/>
      <point x="148" y="690" type="line"/>
      <point x="215" y="695" type="line"/>
      <point x="215" y="714" type="line"/>
      <point x="54" y="714" type="line"/>
      <point x="54" y="695" type="line"/>
      <point x="121" y="690" type="line"/>
      <point x="121" y="-217" type="line"/>
      <point x="54" y="-221" type="line"/>
      <point x="54" y="-240" type="line"/>
      <point x="215" y="-240" type="line"/>
      <point x="215" y="-221" type="line"/>
    </contour>
  </outline>
</glyph>
<glyph name="uniA771" format="2">
  <advance width="707"/>
  <unicode hex="A771"/>
  <anchor x="274" y="0" name="bottom"/>
  <anchor x="275" y="264" name="center"/>
  <anchor x="273" y="760" name="top"/>
  <anchor x="528" y="760" name="topright"/>
  <outline>
    <contour>
      <point x="459" y="0" type="line"/>
      <point x="702" y="0" type="line"/>
      <point x="702" y="25" type="line"/>
      <point x="459" y="25" type="line"/>
    </contour>
    <contour>
      <point x="627" y="185" type="line"/>
      <point x="446" y="-157" type="line"/>
      <point x="474" y="-157" type="line"/>
      <point x="655" y="185" type="line"/>
    </contour>
    <component base="d"/>
  </outline>
</glyph>
<glyph name="uniA772" format="2">
  <advance width="361"/>
  <unicode hex="A772"/>
  <anchor x="99" y="0" name="bottom"/>
  <anchor x="99" y="264" name="center"/>
  <anchor x="99" y="760" name="top"/>
  <anchor x="176" y="760" name="topright"/>
  <outline>
    <contour>
      <point x="110" y="0" type="line"/>
      <point x="353" y="0" type="line"/>
      <point x="353" y="25" type="line"/>
      <point x="110" y="25" type="line"/>
    </contour>
    <contour>
      <point x="278" y="185" type="line"/>
      <point x="97" y="-157" type="line"/>
      <point x="125" y="-157" type="line"/>
      <point x="306" y="185" type="line"/>
    </contour>
    <component base="l"/>
  </outline>
</glyph>
<glyph name="uniA774" format="2">
  <advance width="705"/>
  <unicode hex="A774"/>
  <anchor x="270" y="0" name="bottom"/>
  <anchor x="270" y="528" name="top"/>
  <anchor x="520" y="528" name="topright"/>
  <outline>
    <contour>
      <point x="457" y="0" type="line"/>
      <point x="700" y="0" type="line"/>
      <point x="700" y="25" type="line"/>
      <point x="457" y="25" type="line"/>
    </contour>
    <contour>
      <point x="625" y="185" type="line"/>
      <point x="444" y="-157" type="line"/>
      <point x="472" y="-157" type="line"/>
      <point x="653" y="185" type="line"/>
    </contour>
    <component base="n"/>
  </outline>
</glyph>
<glyph name="uniA776" format="2">
  <advance width="660"/>
  <unicode hex="A776"/>
  <anchor x="220" y="0" name="bottom"/>
  <anchor x="220" y="528" name="top"/>
  <outline>
    <contour>
      <point x="412" y="0" type="line"/>
      <point x="655" y="0" type="line"/>
      <point x="655" y="25" type="line"/>
      <point x="400" y="25" type="line"/>
    </contour>
    <contour>
      <point x="580" y="185" type="line"/>
      <point x="399" y="-157" type="line"/>
      <point x="427" y="-157" type="line"/>
      <point x="608" y="185" type="line"/>
    </contour>
    <component base="uni0280"/>
  </outline>
</glyph>
<glyph name="uniA78D" format="2">
  <advance width="667"/>
  <unicode hex="A78D"/>
  <outline>
    <contour>
      <point x="569" y="0" type="line"/>
      <point x="569" y="714" type="line"/>
      <point x="542" y="714" type="line"/>
      <point x="542" y="388" type="line"/>
      <point x="124" y="388" type="line"/>
      <point x="124" y="714" type="line"/>
      <point x="97" y="714" type="line"/>
      <point x="97" y="363" type="line"/>
      <point x="542" y="363" type="line"/>
      <point x="542" y="0" type="line"/>
    </contour>
  </outline>
</glyph>
<glyph name="uniA790" format="2">
  <advance width="674"/>
  <unicode hex="A790"/>
  <anchor x="330" y="0" name="bottom"/>
  <anchor x="330" y="714" name="top"/>
  <anchor x="640" y="714" name="topright"/>
  <outline>
    <contour>
      <point x="561" y="0" type="line"/>
      <point x="561" y="-193" type="line"/>
      <point x="587" y="-193" type="line"/>
      <point x="587" y="29" type="line"/>
      <point x="558" y="29" type="line"/>
    </contour>
    <component base="N"/>
  </outline>
</glyph>
<glyph name="uniA791" format="2">
  <advance width="582"/>
  <unicode hex="A791"/>
  <anchor x="270" y="0" name="bottom"/>
  <anchor x="270" y="528" name="top"/>
  <anchor x="520" y="528" name="topright"/>
  <outline>
    <contour>
      <point x="459" y="0" type="line"/>
      <point x="459" y="-196" type="line"/>
      <point x="486" y="-196" type="line"/>
      <point x="486" y="28" type="line"/>
      <point x="456" y="28" type="line"/>
    </contour>
    <component base="n"/>
  </outline>
</glyph>
<glyph name="uniA792" format="2">
  <advance width="578"/>
  <unicode hex="A792"/>
  <anchor x="345" y="0" name="bottom"/>
  <anchor x="363" y="714" name="top"/>
  <anchor x="559" y="714" name="topright"/>
  <outline>
    <contour>
      <point x="1" y="344" type="line"/>
      <point x="363" y="344" type="line"/>
      <point x="363" y="369" type="line"/>
      <point x="1" y="369" type="line"/>
    </contour>
    <component base="C"/>
  </outline>
</glyph>
<glyph name="uniA794" format="2">
  <advance width="443"/>
  <unicode hex="A794"/>
  <anchor x="296" y="-169" name="bottom"/>
  <anchor x="306" y="528" name="top"/>
  <anchor x="425" y="528" name="topright"/>
  <outline>
    <contour>
      <point x="386" y="19" type="line"/>
      <point x="386" y="-81" type="line" smooth="yes"/>
      <point x="386" y="-125"/>
      <point x="372" y="-144"/>
      <point x="338" y="-144" type="curve" smooth="yes"/>
      <point x="323" y="-144"/>
      <point x="310" y="-140"/>
      <point x="299" y="-135" type="curve"/>
      <point x="299" y="-160" type="line"/>
      <point x="308" y="-165"/>
      <point x="321" y="-169"/>
      <point x="338" y="-169" type="curve" smooth="yes"/>
      <point x="387" y="-169"/>
      <point x="412" y="-139"/>
      <point x="412" y="-84" type="curve" smooth="yes"/>
      <point x="412" y="39" type="line"/>
    </contour>
    <component base="c"/>
  </outline>
</glyph>
<glyph name="uniA795" format="2">
  <advance width="582"/>
  <unicode hex="A795"/>
  <anchor x="287" y="-169" name="bottom"/>
  <anchor x="103" y="760" name="top"/>
  <anchor x="274" y="264" name="center"/>
  <anchor x="519" y="760" name="topright"/>
  <outline>
    <contour>
      <point x="414" y="-169" type="curve" smooth="yes"/>
      <point x="460" y="-169"/>
      <point x="485" y="-139"/>
      <point x="485" y="-84" type="curve" smooth="yes"/>
      <point x="485" y="25" type="line"/>
      <point x="459" y="25" type="line"/>
      <point x="459" y="0" type="line"/>
      <point x="459" y="-81" type="line" smooth="yes"/>
      <point x="459" y="-125"/>
      <point x="445" y="-144"/>
      <point x="414" y="-144" type="curve" smooth="yes"/>
      <point x="399" y="-144"/>
      <point x="383" y="-140"/>
      <point x="372" y="-135" type="curve"/>
      <point x="372" y="-160" type="line"/>
      <point x="381" y="-165"/>
      <point x="397" y="-169"/>
    </contour>
    <component base="h"/>
  </outline>
</glyph>
<glyph name="uniA799" format="2">
  <advance width="261"/>
  <unicode hex="A799"/>
  <anchor x="120" y="0" name="bottom"/>
  <anchor x="206" y="765" name="top"/>
  <anchor x="307" y="765" name="topright"/>
  <outline>
    <contour>
      <point x="236" y="337" type="line"/>
      <point x="13" y="337" type="line"/>
      <point x="13" y="312" type="line"/>
      <point x="236" y="312" type="line"/>
    </contour>
    <component base="f"/>
  </outline>
</glyph>
<glyph name="uniA7A4" format="2">
  <advance width="659"/>
  <unicode hex="A7A4"/>
  <anchor x="330" y="0" name="bottom"/>
  <anchor x="330" y="714" name="top"/>
  <anchor x="640" y="714" name="topright"/>
  <outline>
    <contour>
      <point x="4" y="310" type="line"/>
      <point x="4" y="284" type="line"/>
      <point x="659" y="427" type="line"/>
      <point x="659" y="453" type="line"/>
    </contour>
    <component base="N"/>
  </outline>
</glyph>
<glyph name="uniA7A5" format="2">
  <advance width="574"/>
  <unicode hex="A7A5"/>
  <anchor x="270" y="0" name="bottom"/>
  <anchor x="270" y="528" name="top"/>
  <anchor x="520" y="528" name="topright"/>
  <outline>
    <contour>
      <point x="3" y="232" type="line"/>
      <point x="3" y="208" type="line"/>
      <point x="563" y="347" type="line"/>
      <point x="563" y="371" type="line"/>
    </contour>
    <component base="n"/>
  </outline>
</glyph>
<glyph name="uniA7A9" format="2">
  <advance width="431"/>
  <unicode hex="A7A9"/>
  <anchor x="229" y="0" name="bottom"/>
  <anchor x="229" y="528" name="top"/>
  <anchor x="412" y="528" name="topright"/>
  <outline>
    <contour>
      <point x="3" y="232" type="line"/>
      <point x="3" y="208" type="line"/>
      <point x="431" y="316" type="line"/>
      <point x="431" y="340" type="line"/>
    </contour>
    <component base="s"/>
  </outline>
</glyph>
<glyph name="uniA7AE" format="2">
  <advance width="475"/>
  <unicode hex="A7AE"/>
  <anchor x="238" y="0" name="bottom"/>
  <anchor x="238" y="714" name="top"/>
  <outline>
    <contour>
      <point x="428" y="714" type="line"/>
      <point x="47" y="714" type="line"/>
      <point x="47" y="694" type="line"/>
      <point x="225" y="690" type="line"/>
      <point x="225" y="24" type="line"/>
      <point x="47" y="20" type="line"/>
      <point x="47" y="0" type="line"/>
      <point x="428" y="0" type="line"/>
      <point x="428" y="20" type="line"/>
      <point x="251" y="24" type="line"/>
      <point x="251" y="690" type="line"/>
      <point x="428" y="694" type="line"/>
    </contour>
  </outline>
</glyph>
<glyph name="uniA7B8" format="2">
  <advance width="670"/>
  <unicode hex="A7B8"/>
  <anchor x="335" y="0" name="bottom"/>
  <anchor x="335" y="714" name="top"/>
  <anchor x="651" y="714" name="topright"/>
  <outline>
    <contour>
      <point x="55" y="-26" type="line"/>
      <point x="649" y="725" type="line"/>
      <point x="629" y="740" type="line"/>
      <point x="35" y="-11" type="line"/>
    </contour>
    <component base="U"/>
  </outline>
</glyph>
<glyph name="uniA7B9" format="2">
  <advance width="540"/>
  <unicode hex="A7B9"/>
  <anchor x="270" y="0" name="bottom"/>
  <anchor x="271" y="528" name="top"/>
  <anchor x="520" y="528" name="topright"/>
  <outline>
    <contour>
      <point x="50" y="-27" type="line"/>
      <point x="506" y="539" type="line"/>
      <point x="487" y="555" type="line"/>
      <point x="31" y="-11" type="line"/>
    </contour>
    <component base="u"/>
  </outline>
</glyph>
<glyph name="uniA7C7" format="2">
  <advance width="653"/>
  <unicode hex="A7C7"/>
  <anchor x="326" y="0" name="bottom"/>
  <anchor x="327" y="357" name="center"/>
  <anchor x="326" y="714" name="top"/>
  <anchor x="634" y="714" name="topright"/>
  <outline>
    <contour>
      <point x="114" y="355" type="line"/>
      <point x="578" y="355" type="line"/>
      <point x="578" y="380" type="line"/>
      <point x="114" y="380" type="line"/>
    </contour>
    <component base="D"/>
  </outline>
</glyph>
<glyph name="uniA7C8" format="2">
  <advance width="549"/>
  <unicode hex="A7C8"/>
  <anchor x="274" y="0" name="bottom"/>
  <anchor x="275" y="264" name="center"/>
  <anchor x="273" y="760" name="top"/>
  <anchor x="528" y="760" name="topright"/>
  <outline>
    <contour>
      <point x="71" y="258" type="line"/>
      <point x="456" y="258" type="line"/>
      <point x="456" y="283" type="line"/>
      <point x="71" y="283" type="line"/>
    </contour>
    <component base="d"/>
  </outline>
</glyph>
<glyph name="uniA7FA" format="2">
  <advance width="701"/>
  <unicode hex="A7FA"/>
  <anchor x="349" y="0" name="bottom"/>
  <anchor x="351" y="528" name="top"/>
  <outline>
    <contour>
      <point x="634" y="0" type="line"/>
      <point x="634" y="528" type="line"/>
      <point x="606" y="528" type="line"/>
      <point x="606" y="25" type="line"/>
      <point x="363" y="25" type="line"/>
      <point x="363" y="528" type="line"/>
      <point x="337" y="528" type="line"/>
      <point x="337" y="25" type="line"/>
      <point x="94" y="25" type="line"/>
      <point x="94" y="528" type="line"/>
      <point x="67" y="528" type="line"/>
      <point x="67" y="0" type="line"/>
    </contour>
  </outline>
</glyph>
<glyph name="uniA7FE" format="2">
  <advance width="268"/>
  <unicode hex="A7FE"/>
  <outline>
    <contour>
      <point x="212" y="0" type="line"/>
      <point x="212" y="20" type="line"/>
      <point x="148" y="23" type="line"/>
      <point x="148" y="903" type="line"/>
      <point x="212" y="907" type="line"/>
      <point x="212" y="927" type="line"/>
      <point x="56" y="927" type="line"/>
      <point x="56" y="907" type="line"/>
      <point x="121" y="903" type="line"/>
      <point x="121" y="23" type="line"/>
      <point x="56" y="20" type="line"/>
      <point x="56" y="0" type="line"/>
    </contour>
  </outline>
</glyph>
<glyph name="uniAB41" format="2">
  <advance width="906"/>
  <unicode hex="AB41"/>
  <anchor x="452" y="528" name="bottom"/>
  <anchor x="452" y="0" name="top"/>
  <outline>
    <contour>
      <point x="407" y="-38" type="line"/>
      <point x="884" y="537" type="line"/>
      <point x="864" y="552" type="line"/>
      <point x="388" y="-21" type="line"/>
    </contour>
    <component base="oe" xScale="-1" yScale="-1" xOffset="906" yOffset="528"/>
  </outline>
</glyph>
<glyph name="uniAB42" format="2">
  <advance width="907"/>
  <unicode hex="AB42"/>
  <anchor x="452" y="528" name="bottom"/>
  <anchor x="452" y="0" name="top"/>
  <outline>
    <contour>
      <point x="438" y="282" type="line"/>
      <point x="438" y="257" type="line"/>
      <point x="830" y="257" type="line"/>
      <point x="830" y="282" type="line"/>
    </contour>
    <component base="oe" xScale="-1" yScale="-1" xOffset="906" yOffset="528"/>
  </outline>
</glyph>
<glyph name="uniAB4F" format="2">
  <advance width="540"/>
  <unicode hex="AB4F"/>
  <outline>
    <contour>
      <point x="6" y="250" type="line"/>
      <point x="6" y="225" type="line"/>
      <point x="536" y="225" type="line"/>
      <point x="536" y="250" type="line"/>
    </contour>
    <component base="uniAB4E"/>
  </outline>
</glyph>
<glyph name="uniAB60" format="2">
  <advance width="878"/>
  <unicode hex="AB60"/>
  <anchor x="277" y="0" name="bottom"/>
  <anchor x="277" y="528" name="top"/>
  <outline>
    <contour>
      <point x="441" y="0" type="line"/>
      <point x="647" y="0" type="line" smooth="yes"/>
      <point x="762" y="0"/>
      <point x="819" y="56"/>
      <point x="819" y="156" type="curve" smooth="yes"/>
      <point x="819" y="244"/>
      <point x="770" y="302"/>
      <point x="660" y="302" type="curve" smooth="yes"/>
      <point x="468" y="302" type="line"/>
      <point x="468" y="528" type="line"/>
      <point x="441" y="528" type="line"/>
    </contour>
    <contour>
      <point x="644" y="25" type="curve" smooth="yes"/>
      <point x="468" y="25" type="line"/>
      <point x="468" y="277" type="line"/>
      <point x="656" y="277" type="line" smooth="yes"/>
      <point x="747" y="277"/>
      <point x="790" y="233"/>
      <point x="790" y="157" type="curve" smooth="yes"/>
      <point x="790" y="72"/>
      <point x="751" y="25"/>
    </contour>
    <component base="afii10081"/>
  </outline>
</glyph>
<glyph name="uniAB61" format="2">
  <advance width="750"/>
  <unicode hex="AB61"/>
  <anchor x="497" y="0" name="bottom"/>
  <anchor x="496" y="528" name="top"/>
  <anchor x="732" y="528" name="topright"/>
  <outline>
    <contour>
      <point x="306" y="263" type="line"/>
      <point x="307" y="288" type="line"/>
      <point x="119" y="288" type="line"/>
      <point x="119" y="527" type="line"/>
      <point x="93" y="527" type="line"/>
      <point x="93" y="0" type="line"/>
      <point x="119" y="0" type="line"/>
      <point x="119" y="263" type="line"/>
    </contour>
    <component base="e" xOffset="242"/>
  </outline>
</glyph>
<glyph name="uniFE22" format="2">
  <unicode hex="FE22"/>
  <outline>
    <contour>
      <point x="-16" y="643" type="curve"/>
      <point x="-14" y="671" type="line"/>
      <point x="-67" y="688"/>
      <point x="-124" y="706"/>
      <point x="-193" y="706" type="curve" smooth="yes"/>
      <point x="-280" y="706"/>
      <point x="-332" y="664"/>
      <point x="-333" y="605" type="curve"/>
      <point x="-311" y="605" type="line"/>
      <point x="-309" y="647"/>
      <point x="-278" y="681"/>
      <point x="-192" y="681" type="curve" smooth="yes"/>
      <point x="-123" y="681"/>
      <point x="-64" y="659"/>
    </contour>
  </outline>
</glyph>
<glyph name="uniFE23" format="2">
  <unicode hex="FE23"/>
  <outline>
    <contour>
      <point x="0" y="671" type="curve"/>
      <point x="0" y="643" type="line"/>
      <point x="56" y="626"/>
      <point x="118" y="608"/>
      <point x="193" y="608" type="curve" smooth="yes"/>
      <point x="288" y="608"/>
      <point x="346" y="650"/>
      <point x="350" y="709" type="curve"/>
      <point x="327" y="709" type="line"/>
      <point x="321" y="667"/>
      <point x="285" y="633"/>
      <point x="193" y="633" type="curve" smooth="yes"/>
      <point x="116" y="633"/>
      <point x="51" y="655"/>
    </contour>
  </outline>
</glyph>
<glyph name="uniFE2E" format="2">
  <unicode hex="FE2E"/>
  <outline>
    <contour>
      <point x="-68" y="624" type="curve"/>
      <point x="138" y="624" type="line"/>
      <point x="138" y="652" type="line"/>
      <point x="-90" y="652" type="line" smooth="yes"/>
      <point x="-119" y="652"/>
      <point x="-136" y="645"/>
      <point x="-136" y="615" type="curve" smooth="yes"/>
      <point x="-136" y="582"/>
      <point x="-123" y="578"/>
      <point x="-103" y="578" type="curve" smooth="yes"/>
      <point x="-83" y="578"/>
      <point x="-72" y="589"/>
    </contour>
  </outline>
</glyph>
<glyph name="uniFE2F" format="2">
  <unicode hex="FE2F"/>
  <outline>
    <contour>
      <point x="-139" y="624" type="line"/>
      <point x="89" y="624" type="line" smooth="yes"/>
      <point x="119" y="624"/>
      <point x="135" y="631"/>
      <point x="135" y="661" type="curve" smooth="yes"/>
      <point x="135" y="694"/>
      <point x="122" y="698"/>
      <point x="102" y="698" type="curve" smooth="yes"/>
      <point x="82" y="698"/>
      <point x="71" y="687"/>
      <point x="67" y="652" type="curve"/>
      <point x="-139" y="652" type="line"/>
    </contour>
  </outline>
</glyph>
<glyph name="aogonek.loclNAV" format="2">
  <advance width="483"/>
  <anchor x="222" y="-217" name="bottom"/>
  <anchor x="242" y="528" name="top"/>
  <anchor x="462" y="528" name="topright"/>
  <outline>
    <contour>
      <point x="253" y="-217" type="curve" smooth="yes"/>
      <point x="273" y="-217"/>
      <point x="290" y="-213"/>
      <point x="301" y="-209" type="curve"/>
      <point x="301" y="-185" type="line"/>
      <point x="290" y="-189"/>
      <point x="273" y="-192"/>
      <point x="255" y="-192" type="curve" smooth="yes"/>
      <point x="219" y="-192"/>
      <point x="201" y="-170"/>
      <point x="201" y="-131" type="curve" smooth="yes"/>
      <point x="201" y="-73"/>
      <point x="253" y="-23"/>
      <point x="305" y="18" type="curve"/>
      <point x="287" y="29" type="line"/>
      <point x="210" y="-30"/>
      <point x="175" y="-81"/>
      <point x="175" y="-135" type="curve" smooth="yes"/>
      <point x="175" y="-190"/>
      <point x="209" y="-217"/>
    </contour>
    <component base="a"/>
  </outline>
</glyph>
<glyph name="one.lf" format="2">
  <advance width="345"/>
  <outline>
    <contour>
      <point x="202" y="0" type="line"/>
      <point x="229" y="0" type="line"/>
      <point x="229" y="714" type="line"/>
      <point x="205" y="714" type="line"/>
      <point x="22" y="572" type="line"/>
      <point x="38" y="551" type="line"/>
      <point x="152" y="642" type="line" smooth="yes"/>
      <point x="176" y="661"/>
      <point x="188" y="671"/>
      <point x="203" y="685" type="curve"/>
      <point x="202" y="658"/>
      <point x="202" y="620"/>
      <point x="202" y="563" type="curve" smooth="yes"/>
    </contour>
  </outline>
</glyph>
<glyph name="uni03D0.alt" format="2">
  <advance width="559"/>
  <anchor x="280" y="-9" name="bottom"/>
  <anchor x="280" y="765" name="top"/>
  <outline>
    <contour>
      <point x="294" y="765" type="curve" smooth="yes"/>
      <point x="157" y="765"/>
      <point x="85" y="673"/>
      <point x="85" y="536" type="curve" smooth="yes"/>
      <point x="85" y="231" type="line" smooth="yes"/>
      <point x="85" y="67"/>
      <point x="168" y="-9"/>
      <point x="299" y="-9" type="curve" smooth="yes"/>
      <point x="436" y="-9"/>
      <point x="510" y="74"/>
      <point x="510" y="209" type="curve" smooth="yes"/>
      <point x="510" y="334"/>
      <point x="454" y="389"/>
      <point x="364" y="403" type="curve"/>
      <point x="364" y="405" type="line"/>
      <point x="439" y="422"/>
      <point x="485" y="491"/>
      <point x="485" y="581" type="curve" smooth="yes"/>
      <point x="485" y="697"/>
      <point x="411" y="765"/>
    </contour>
    <contour>
      <point x="293" y="740" type="curve" smooth="yes"/>
      <point x="398" y="740"/>
      <point x="456" y="678"/>
      <point x="456" y="581" type="curve" smooth="yes"/>
      <point x="456" y="468"/>
      <point x="388" y="414"/>
      <point x="291" y="414" type="curve" smooth="yes"/>
      <point x="240" y="414" type="line"/>
      <point x="240" y="389" type="line"/>
      <point x="292" y="389" type="line" smooth="yes"/>
      <point x="423" y="389"/>
      <point x="482" y="334"/>
      <point x="482" y="209" type="curve" smooth="yes"/>
      <point x="482" y="83"/>
      <point x="423" y="16"/>
      <point x="301" y="16" type="curve" smooth="yes"/>
      <point x="185" y="16"/>
      <point x="112" y="82"/>
      <point x="112" y="235" type="curve" smooth="yes"/>
      <point x="112" y="531" type="line"/>
      <point x="112" y="657"/>
      <point x="170" y="740"/>
    </contour>
  </outline>
</glyph>
<glyph name="uni1FCD02C9" format="2">
  <advance width="371"/>
  <anchor x="186" y="528" name="_top"/>
  <anchor x="186" y="834" name="top"/>
  <outline>
    <contour>
      <point x="238" y="834" type="curve"/>
      <point x="204" y="834" type="line"/>
      <point x="204" y="824" type="line"/>
      <point x="214" y="792"/>
      <point x="237" y="746"/>
      <point x="266" y="705" type="curve"/>
      <point x="281" y="705" type="line"/>
      <point x="281" y="717" type="line"/>
      <point x="264" y="747"/>
      <point x="244" y="800"/>
    </contour>
    <contour>
      <point x="307" y="634" type="line"/>
      <point x="65" y="634" type="line"/>
      <point x="65" y="610" type="line"/>
      <point x="307" y="610" type="line"/>
    </contour>
    <contour>
      <point x="126" y="833" type="curve" smooth="yes"/>
      <point x="109" y="833"/>
      <point x="99" y="822"/>
      <point x="99" y="805" type="curve" smooth="yes"/>
      <point x="99" y="788"/>
      <point x="115" y="775"/>
      <point x="137" y="775" type="curve"/>
      <point x="136" y="753"/>
      <point x="115" y="732"/>
      <point x="94" y="726" type="curve"/>
      <point x="94" y="705" type="line"/>
      <point x="128" y="715"/>
      <point x="161" y="743"/>
      <point x="161" y="787" type="curve" smooth="yes"/>
      <point x="161" y="821"/>
      <point x="144" y="833"/>
    </contour>
  </outline>
</glyph>
<glyph name="uni1FCD0306" format="2">
  <advance width="348"/>
  <anchor x="173" y="528" name="_top"/>
  <anchor x="173" y="844" name="top"/>
  <outline>
    <contour>
      <point x="172" y="590" type="curve" smooth="yes"/>
      <point x="247" y="590"/>
      <point x="289" y="624"/>
      <point x="298" y="691" type="curve"/>
      <point x="273" y="691" type="line"/>
      <point x="267" y="644"/>
      <point x="239" y="614"/>
      <point x="172" y="614" type="curve" smooth="yes"/>
      <point x="110" y="614"/>
      <point x="77" y="644"/>
      <point x="72" y="691" type="curve"/>
      <point x="47" y="691" type="line"/>
      <point x="53" y="624"/>
      <point x="98" y="590"/>
    </contour>
    <contour>
      <point x="83" y="715" type="line"/>
      <point x="118" y="725"/>
      <point x="151" y="753"/>
      <point x="151" y="797" type="curve" smooth="yes"/>
      <point x="151" y="831"/>
      <point x="134" y="843"/>
      <point x="115" y="843" type="curve" smooth="yes"/>
      <point x="99" y="843"/>
      <point x="89" y="832"/>
      <point x="89" y="815" type="curve" smooth="yes"/>
      <point x="89" y="798"/>
      <point x="104" y="785"/>
      <point x="127" y="785" type="curve"/>
      <point x="126" y="763"/>
      <point x="105" y="742"/>
      <point x="83" y="736" type="curve"/>
    </contour>
    <contour>
      <point x="248" y="715" type="curve"/>
      <point x="263" y="715" type="line"/>
      <point x="263" y="727" type="line"/>
      <point x="246" y="757"/>
      <point x="227" y="810"/>
      <point x="220" y="844" type="curve"/>
      <point x="186" y="844" type="line"/>
      <point x="186" y="834" type="line"/>
      <point x="196" y="802"/>
      <point x="219" y="756"/>
    </contour>
  </outline>
</glyph>
<glyph name="uni1FCE02C9" format="2">
  <advance width="371"/>
  <anchor x="186" y="528" name="_top"/>
  <anchor x="186" y="834" name="top"/>
  <outline>
    <contour>
      <point x="206" y="705" type="line"/>
      <point x="222" y="705" type="line"/>
      <point x="250" y="746"/>
      <point x="273" y="792"/>
      <point x="283" y="824" type="curve"/>
      <point x="283" y="834" type="line"/>
      <point x="250" y="834" type="line"/>
      <point x="243" y="800"/>
      <point x="223" y="747"/>
      <point x="206" y="717" type="curve"/>
    </contour>
    <contour>
      <point x="65" y="610" type="line"/>
      <point x="307" y="610" type="line"/>
      <point x="307" y="634" type="line"/>
      <point x="65" y="634" type="line"/>
    </contour>
    <contour>
      <point x="104" y="705" type="line"/>
      <point x="139" y="715"/>
      <point x="171" y="743"/>
      <point x="171" y="787" type="curve" smooth="yes"/>
      <point x="171" y="821"/>
      <point x="154" y="833"/>
      <point x="136" y="833" type="curve" smooth="yes"/>
      <point x="119" y="833"/>
      <point x="110" y="822"/>
      <point x="110" y="805" type="curve" smooth="yes"/>
      <point x="110" y="788"/>
      <point x="125" y="775"/>
      <point x="148" y="775" type="curve"/>
      <point x="147" y="753"/>
      <point x="126" y="732"/>
      <point x="104" y="726" type="curve"/>
    </contour>
  </outline>
</glyph>
<glyph name="uni1FCE0306" format="2">
  <advance width="348"/>
  <anchor x="173" y="528" name="_top"/>
  <anchor x="173" y="844" name="top"/>
  <outline>
    <contour>
      <point x="172" y="590" type="curve" smooth="yes"/>
      <point x="247" y="590"/>
      <point x="289" y="624"/>
      <point x="298" y="691" type="curve"/>
      <point x="273" y="691" type="line"/>
      <point x="267" y="644"/>
      <point x="239" y="614"/>
      <point x="172" y="614" type="curve" smooth="yes"/>
      <point x="110" y="614"/>
      <point x="77" y="644"/>
      <point x="72" y="691" type="curve"/>
      <point x="47" y="691" type="line"/>
      <point x="53" y="624"/>
      <point x="98" y="590"/>
    </contour>
    <contour>
      <point x="99" y="715" type="line"/>
      <point x="133" y="725"/>
      <point x="166" y="753"/>
      <point x="166" y="797" type="curve" smooth="yes"/>
      <point x="166" y="831"/>
      <point x="149" y="843"/>
      <point x="131" y="843" type="curve" smooth="yes"/>
      <point x="114" y="843"/>
      <point x="104" y="832"/>
      <point x="104" y="815" type="curve" smooth="yes"/>
      <point x="104" y="798"/>
      <point x="120" y="785"/>
      <point x="142" y="785" type="curve"/>
      <point x="142" y="763"/>
      <point x="120" y="742"/>
      <point x="99" y="736" type="curve"/>
    </contour>
    <contour>
      <point x="200" y="715" type="line"/>
      <point x="216" y="715" type="line"/>
      <point x="244" y="756"/>
      <point x="267" y="802"/>
      <point x="277" y="834" type="curve"/>
      <point x="277" y="844" type="line"/>
      <point x="243" y="844" type="line"/>
      <point x="237" y="810"/>
      <point x="217" y="757"/>
      <point x="200" y="727" type="curve"/>
    </contour>
  </outline>
</glyph>
<glyph name="uni1FDD02C9" format="2">
  <advance width="371"/>
  <anchor x="186" y="528" name="_top"/>
  <anchor x="186" y="834" name="top"/>
  <outline>
    <contour>
      <point x="233" y="834" type="curve"/>
      <point x="199" y="834" type="line"/>
      <point x="199" y="824" type="line"/>
      <point x="209" y="792"/>
      <point x="232" y="746"/>
      <point x="261" y="705" type="curve"/>
      <point x="276" y="705" type="line"/>
      <point x="276" y="717" type="line"/>
      <point x="259" y="747"/>
      <point x="240" y="800"/>
    </contour>
    <contour>
      <point x="307" y="634" type="line"/>
      <point x="65" y="634" type="line"/>
      <point x="65" y="610" type="line"/>
      <point x="307" y="610" type="line"/>
    </contour>
    <contour>
      <point x="123" y="833" type="curve" smooth="yes"/>
      <point x="105" y="833"/>
      <point x="88" y="821"/>
      <point x="88" y="787" type="curve" smooth="yes"/>
      <point x="88" y="743"/>
      <point x="121" y="715"/>
      <point x="156" y="705" type="curve"/>
      <point x="156" y="726" type="line"/>
      <point x="134" y="732"/>
      <point x="113" y="753"/>
      <point x="112" y="775" type="curve"/>
      <point x="135" y="775"/>
      <point x="150" y="788"/>
      <point x="150" y="805" type="curve" smooth="yes"/>
      <point x="150" y="822"/>
      <point x="140" y="833"/>
    </contour>
  </outline>
</glyph>
<glyph name="uni1FDD0306" format="2">
  <advance width="348"/>
  <anchor x="173" y="528" name="_top"/>
  <anchor x="173" y="844" name="top"/>
  <outline>
    <contour>
      <point x="172" y="590" type="curve" smooth="yes"/>
      <point x="247" y="590"/>
      <point x="289" y="624"/>
      <point x="298" y="691" type="curve"/>
      <point x="273" y="691" type="line"/>
      <point x="267" y="644"/>
      <point x="239" y="614"/>
      <point x="172" y="614" type="curve" smooth="yes"/>
      <point x="110" y="614"/>
      <point x="77" y="644"/>
      <point x="72" y="691" type="curve"/>
      <point x="47" y="691" type="line"/>
      <point x="53" y="624"/>
      <point x="98" y="590"/>
    </contour>
    <contour>
      <point x="139" y="715" type="curve"/>
      <point x="139" y="736" type="line"/>
      <point x="117" y="742"/>
      <point x="96" y="763"/>
      <point x="95" y="785" type="curve"/>
      <point x="118" y="785"/>
      <point x="133" y="798"/>
      <point x="133" y="815" type="curve" smooth="yes"/>
      <point x="133" y="832"/>
      <point x="123" y="843"/>
      <point x="107" y="843" type="curve" smooth="yes"/>
      <point x="88" y="843"/>
      <point x="71" y="831"/>
      <point x="71" y="797" type="curve" smooth="yes"/>
      <point x="71" y="753"/>
      <point x="104" y="725"/>
    </contour>
    <contour>
      <point x="239" y="715" type="curve"/>
      <point x="254" y="715" type="line"/>
      <point x="254" y="727" type="line"/>
      <point x="237" y="757"/>
      <point x="217" y="810"/>
      <point x="211" y="844" type="curve"/>
      <point x="177" y="844" type="line"/>
      <point x="177" y="834" type="line"/>
      <point x="187" y="802"/>
      <point x="210" y="756"/>
    </contour>
  </outline>
</glyph>
<glyph name="uni1FDE02C9" format="2">
  <advance width="371"/>
  <anchor x="186" y="528" name="_top"/>
  <anchor x="186" y="834" name="top"/>
  <outline>
    <contour>
      <point x="209" y="705" type="line"/>
      <point x="224" y="705" type="line"/>
      <point x="253" y="746"/>
      <point x="276" y="792"/>
      <point x="286" y="824" type="curve"/>
      <point x="286" y="834" type="line"/>
      <point x="252" y="834" type="line"/>
      <point x="245" y="800"/>
      <point x="226" y="747"/>
      <point x="209" y="717" type="curve"/>
    </contour>
    <contour>
      <point x="65" y="610" type="line"/>
      <point x="307" y="610" type="line"/>
      <point x="307" y="634" type="line"/>
      <point x="65" y="634" type="line"/>
    </contour>
    <contour>
      <point x="161" y="705" type="curve"/>
      <point x="161" y="726" type="line"/>
      <point x="140" y="732"/>
      <point x="119" y="753"/>
      <point x="118" y="775" type="curve"/>
      <point x="140" y="775"/>
      <point x="156" y="788"/>
      <point x="156" y="805" type="curve" smooth="yes"/>
      <point x="156" y="822"/>
      <point x="146" y="833"/>
      <point x="129" y="833" type="curve" smooth="yes"/>
      <point x="111" y="833"/>
      <point x="94" y="821"/>
      <point x="94" y="787" type="curve" smooth="yes"/>
      <point x="94" y="743"/>
      <point x="127" y="715"/>
    </contour>
  </outline>
</glyph>
<glyph name="uni1FDE0306" format="2">
  <advance width="348"/>
  <anchor x="173" y="528" name="_top"/>
  <anchor x="173" y="844" name="top"/>
  <outline>
    <contour>
      <point x="172" y="590" type="curve" smooth="yes"/>
      <point x="247" y="590"/>
      <point x="289" y="624"/>
      <point x="298" y="691" type="curve"/>
      <point x="273" y="691" type="line"/>
      <point x="267" y="644"/>
      <point x="239" y="614"/>
      <point x="172" y="614" type="curve" smooth="yes"/>
      <point x="110" y="614"/>
      <point x="77" y="644"/>
      <point x="72" y="691" type="curve"/>
      <point x="47" y="691" type="line"/>
      <point x="53" y="624"/>
      <point x="98" y="590"/>
    </contour>
    <contour>
      <point x="151" y="715" type="curve"/>
      <point x="151" y="736" type="line"/>
      <point x="129" y="742"/>
      <point x="108" y="763"/>
      <point x="107" y="785" type="curve"/>
      <point x="130" y="785"/>
      <point x="145" y="798"/>
      <point x="145" y="815" type="curve" smooth="yes"/>
      <point x="145" y="832"/>
      <point x="135" y="843"/>
      <point x="119" y="843" type="curve" smooth="yes"/>
      <point x="100" y="843"/>
      <point x="83" y="831"/>
      <point x="83" y="797" type="curve" smooth="yes"/>
      <point x="83" y="753"/>
      <point x="116" y="725"/>
    </contour>
    <contour>
      <point x="198" y="715" type="line"/>
      <point x="214" y="715" type="line"/>
      <point x="242" y="756"/>
      <point x="266" y="802"/>
      <point x="275" y="834" type="curve"/>
      <point x="275" y="844" type="line"/>
      <point x="242" y="844" type="line"/>
      <point x="235" y="810"/>
      <point x="215" y="757"/>
      <point x="198" y="727" type="curve"/>
    </contour>
  </outline>
</glyph>
<glyph name="zero.slash" format="2">
  <advance width="537"/>
  <outline>
    <contour>
      <point x="94" y="180" type="line"/>
      <point x="455" y="540" type="line"/>
      <point x="437" y="558" type="line"/>
      <point x="76" y="198" type="line"/>
    </contour>
    <component base="zero"/>
  </outline>
</glyph>
